<mxfile host="app.diagrams.net" modified="2022-05-23T01:18:26.183Z" agent="5.0 (Windows NT 10.0; Win64; x64) AppleWebKit/537.36 (KHTML, like Gecko) Chrome/101.0.4951.67 Safari/537.36" etag="dIv4HfhC7Q_segWsfF-q" version="18.1.1" type="github">
  <diagram id="S7J34fLPoymM6_GL6cMU" name="Page-1">
    <mxGraphModel dx="1038" dy="579" grid="1" gridSize="10" guides="1" tooltips="1" connect="1" arrows="1" fold="1" page="1" pageScale="1" pageWidth="827" pageHeight="1169" math="0" shadow="0">
      <root>
        <mxCell id="0" />
        <mxCell id="1" parent="0" />
        <mxCell id="A-rdRI398t5r06DDgrGV-1" value="Locador/&lt;br&gt;LocatÃ¡rio" style="shape=umlActor;verticalLabelPosition=bottom;verticalAlign=top;html=1;outlineConnect=0;" vertex="1" parent="1">
          <mxGeometry x="170" y="20" width="30" height="60" as="geometry" />
        </mxCell>
        <mxCell id="A-rdRI398t5r06DDgrGV-10" value="1. selecionar ENTRAR" style="edgeStyle=orthogonalEdgeStyle;rounded=0;orthogonalLoop=1;jettySize=auto;html=1;dashed=1;" edge="1" parent="1" source="A-rdRI398t5r06DDgrGV-4">
          <mxGeometry x="-0.0638" y="10" relative="1" as="geometry">
            <mxPoint x="450" y="160" as="targetPoint" />
            <Array as="points">
              <mxPoint x="330" y="160" />
              <mxPoint x="330" y="160" />
            </Array>
            <mxPoint as="offset" />
          </mxGeometry>
        </mxCell>
        <mxCell id="A-rdRI398t5r06DDgrGV-4" value="" style="shape=image;verticalLabelPosition=bottom;labelBackgroundColor=default;verticalAlign=top;aspect=fixed;imageAspect=0;image=data:image/png,iVBORw0KGgoAAAANSUhEUgAAAPcAAAIXCAYAAABAV8j4AAAAAXNSR0IArs4c6QAAAARnQU1BAACxjwv8YQUAAAAJcEhZcwAAEnQAABJ0Ad5mH3gAAHRjSURBVHhe7b0FeFVn1rff6/t/+r7j06lO3d3dZupTn7ZTdzeglNKWure0BYqUUkpb3C3BHUKQEJwEtxAjgSRIQggQ1n/d65ydHsKhJJAgm7Wv6ybk7L0f289vrfXIPjkod9UqWVlUKCsLHcfZ38ktKJCc/DzJzs6WgxaOHSdpvfpIet/+juPsz/TuJ3MHDJbFKamSnZsrB03++HMZcsNtMuz2exzH2Y8ZestdMvLhJ2Xa923Nex805tmXpOsfDpMehx/vOM5+TPdDjpG+p50nE956VxhuHzTmuZel25+OkJ5/P8lxnP2YHocdJ/3OuEAmNnovIu6xz70i3f7s4nac/Z0ehx0v/c680MXtOGHDxe04IcXF7TghxcXtOCHFxe04IcXF7TghxcXtOCHFxe04IcXF7TghxcXtOCHFxe04IcXF7TghxcXtOCHFxe04IcXF7TghxcXtOCHFxe04IcXF7TghxcXtOCHFxe04IcXF7TghxcXtOCHFxe04IcXF7TghxcXtOCHFxe04IcXF7TghxcXtOCHFxe04IcXF7TghxcXtOCHFxe04IcXF7TghxcXtOCHFxe04IcXF7TghxcXtOCHFxe04IcXF7TghxcXtOCHFxe04IcXF7TghxcXtOCHFxe04IcXF7TghxcXtOCHFxR1WjjxRehxxQoTDj7cH3f2w4yIcGoP+3iOA66L3cH/cdJ39Bhd3WDnqZOl19CnS65hTpdexp0lvOA5O357oea6z6/U+7o+brrPf4OIOAXhavHC3g4+Srn850rzx4KtukPGPPyupDd+R+d+1lcW/dJLMAYMlP3mSFEydLqtTp0nBtBmSM3yUrOg3QDL69Jf5rdvK1DfekTH3PSIDLrxSPflxlh7pkqZ78/0LF/d+CoJGdJ1/f4j0OfFMGXHr3ZL6+tsm5MyBQ2RVSqoUpaXLusVLpXRlvpStLpDNxcWyddNmkfLyCFu3ypbSUtm8br1sWrtOSvPy7frCmbMlb8IkyRw01NLDQAy7/lbN90TLr/shx0RC9zjlcvYdXNz7GXhQRE3oPPymOyX5yRck7etvTYhr5s43odbkQXpr5i2QjH6JMqdxE5mo/WPQ5f/UsP0k6fa3oyMePU45nb2Pi3s/wSa6Dj9e+p58torrWkl+6gXJ6N1f1i/LiMow5lCPXGNUOjbkrpR5rdrIuIeesHL0Pfmciom4eOV29h4u7v0EPDVCmvRCXVk5JikSVgdHPFHWFtGjbM1ayR42Uia9WM8Mjk3CxSm3s/dwce/jdP3r320Ge0rd12X1lKlSVlgk5WVlUYlFj3girC0EInlSDsbpOSNH6/DgeRM4QwafeNs3cHHvozCWZeJqhI6rF/3UQdYtXLT3vHU8Yo7yjRtlTfpcmfNVMxl6zU2RMF2JVy9nz+Hi3tdQr9f90GOl9wlnmDfMHDBEthSXRGWkRzyh7W2ix4bsHFnWvZckPfyk1YV6uBffe7i49yFsUkrFkHDWxTLx+TpSNCc9Khs94olqXyN65E+cLEmPPG31oD4+2bZ3cHHvQxCKI4jZn39l6852xBPRvo4eLKHN+fxrSTj7Yl8u20u4uPcRumqbD7zkGpnX6oeIsBles89k8/5HUHbqMV/rM+jSf1j94tXbqT1c3PsAXf98pAy+8nrbDbZxdQGOT7Zu2V40+xVafg7qw7ZW6tf1L3+PW3+ndnBx702YbFIGnH+5zGv5vS0rcWwt3xpfMPsbWg8O6jW3+XfS/6yLKuoctz2cGsXFvRdhook17DlffC2lK1eaEFjuCpW4o8t3xSsyZVqj962+PsG2Z3Bx7yV6HHGibfoYcvWNsiEn1wQQTEiFStzRCTYO1uqpL/Wm/vHaxak5XNx7iW6HHCNDrrlRCmfMUiGoEjjCKu6owNnssnJcsr2OamvgcdrFqTlc3HuBbgcfLQMuukrSmjSvCFsrRLAL4hYmryL6qb2D9Ks7e19J3BwIfOYnX0jCeZfaW2Xx2sepGVzcewFmjSc885IUZ6yIdnk9dlHcHJtKN8vawnWyOr9ACvILaxzSJX3yQeTxyhGXWHFD9Fi7YKEkP/GcdPurz57XJi7uPQwbOgacf4V9M4odsZ0/SnXEXVq8UeamzZORI0bJ4IGDZfCgITXOIE131PDRMj99vmwsKYtbjrhUFneAHovbd5YBF1zhG1xqERf3Hoa3vOY0biob81dZJ4/X+asibkLx8k1bZeL4idL4i8ZSr049ef2112uNuq/UlW+++kamTZlu+ZJ/vHJtw2+Ie2P+am2HZu69axEX954iurY78LJ/SM6oMdbB43Z8ZWfiDoRFqNz0m6by2quvSYP6DUyE/KxpgnQbNmgo37dqI2UbynZP3KBH7qixtnvNvozR175rHBf3HqLH4ZGXQlIbNJJ1i5dY547b6ZWdiputnTr+nT93gXz4/ocVXhsBvvnGm/KWws/dJUgnEPirdV+VTz76RBYtWBwZf+9sgm0n4ub72vh+NsTta981j4t7D0Hn7XvKOfbtJVs2lFrnjtvplZ2KW4/itSUyMHGgvPfOe1K/Xn15s+Gb8tWXX8mwIcNl+NDh9nN3CdL5uvHXlj75vPv2uzIgYYCsX1Ns5YhXvgp2Iu7NxSX2jax8pbK//13zuLj3AMFOtOE33C4bV6+2jh23w0epirjzc1dJk6+bVIjuow8+kkGJgyIna/hI7J9oEQL5kB9j79V5kXrEK18FvyVu0KN42XLbdx7x3h6a1yQu7j0A3yne77Tz7DvBywoKrVPH7exRfkvcwUTa/PQFFaE4YXmrFq1k4byFFddUvm9XCNJJnZxqhoSwPAjRly1Zpid3klcVxL1pzRqZ9Vlj6a+d0De21Cwu7j0A3ys28KKrJGf4aPuecDvidfYovyluvWRt0XoZO3qciQxefvFl+aXdLxYqx7tnd9m4oUw6tu9o+QR5Eq4XriqKVCXOPUYVxM2mllytC6+72vevxWk/Z9dwce8B6LTDb7zj1y9g4IjX2aP8prj1WLpoqXzXqrXNXuNJ33vnfRk2eLhesP31NQHHkEFDpdGbjSw/8m3Tuo0sXazeW4949xhVEDc79EpzcmXwVddLlz95v6tJXNy1jI23jz5Fxj/xXKQzc8Tr6DHsTNxTNEx+o+EbJrL6Og7+sc2PsnhBdAa+lo702ekW+pMf+b7z9jsyY9pMOxevnMbOxA3cv2WzjP73/f6dazWMi7uWocMmnHOJzPjgU+vIdsTr5DHsSNwsPW1YX2pe9JWXXjGRMQ7u8HMHmTNzjqzMzpPszJwaZ2VOnkxPnS7tfmhXIW5C9JHM/JfpoHtH4+4qipsjtcFb0u/Uc7VD+o61msLFXcvwcgSvOS78qUO0G+sRr5PHsENx64GHZnyNqBEZBONgQubaIsgjyJP8KUcQMcQrb3XEzZc5sKGFr3OO145O9XFx1zJsrxz+r7skI2FgtBvrEa+Tx/Bb4h42eJitNSO4vSludsV98dkXMn5cspUrXnmrI+6M/gOtnXw7as3h4q5l+H60Mfc8JHkTU6LdWI94nTyGHYm7bMMm6dS+k9SrU7dC1HVermMh+p6izit1KgTeoP5r0qNbz7hlNaohbmbMR911v/3J4Hjt6FQfF3ct0/VPh0vSw0/JmvR50W6sR7xOHkNlcQdj2qyMbGnd6nsTNOLCgxMad+vcTbp07BKhU9cIwe+7SicgrV8/I5+f2/1cYVgQ+/fffS95OfnblLOCaoh71aQUGXPvw2YM47WjU31c3LVMFxX3+MeelXWLYmaz43XyGHYk7vQ5c+XbZs3tDa03Xn9Dvvz8S5tEY1MLXr1sw2YpLS6z/7P3m5+8olldSId7K6dFGXIycyxvQnU2z3zb9FtJm52+TTkrqIa4i2bNkaSHnlBj6H2vpnBx1zIV4l64++KelzZfmjdrUSFuxrx8mYIdeg0iXJ1XIOuK1tv/Y9OoDqTFrDxplazbIFvKyiOf67Fq5eptxN1cjQ3vkwf3xaZTHXGvW7RYxj/+rLVXvHZ0qo+Lu5bZU+LOzVopPbv3lE8//sz2mXfWMHrRb81k7wCOqVOmSavmreTjDz+Wzz/5XBL6JkhebuRrl2tN3IuXuLhrGBd3LdPljyrux5+T9YuXRruxHvE6eQzVEXfR6iLz0qNGjJa333rblqg4zwsePbv3si2isWntDMbPHX7pYOvZdevUNQEztk8aO97O481rQ9xr0tLtDwj6LrWaw8VdyzCGHPfgE1KoY8qKI14nj6E64l5TsNa8Nnu/meAKZrL5Py97zJoxe5s0dkRwflrqdPnmqyaWR5AWG1a6d+luhqJgVWGtiJu/PT72vkf8zw7VIC7uWoalnVF33WdLPRVHvE4ew66Iu1OHTvZ5sB7N/5t83VSmT52xTRo7IjhPSN4kKu6KtNSDd+/aQ1brEKCwlsTNt7KMuvM+XwqrQVzctQybMkbccrdkDhwS7cZ6xOvkMVRH3MGbWWNGjrHPA2/LchmCZ/Y7Nq0dEeRBWM4209i0yCtpTJLlU1th+VIdQgy7/lZ/M6wGcXHXMmw/HXzFdTL/+x+j3ViPeJ08huqIO5hQ4+eYkWPtixSaftNMBiYMlMzlmTv/KqRKkBf5dO3c1b54sWXzVjJ5QopFCBy1NaE256umMuDCK6X7If5Od03h4q5laOC+J58jU+q9Hu3GesTr5DFUR9x8SWJw8DXHy5dkSMbSFbYchrB35WDpCw+9bPFyyczIsgm74ChavcbyZvtpTYp78sv1pc+JZ/nXLdUgLu7a5sgTzRsxnqw44nXyGKok7gZvyKcffWrfyII3Zdydl7tKCqKTXvkrV0lu9krJycyVnKxqoNezMWZV3urIBJpGBITqpM9nCLmmPXd5WZmM1vbxVz5rFhf3HoAZYP4+Vmlunn05gR3xOnqUnYkbUTEWfrfRu7bXvFeP3rbHu7YhH2blyZuJtt0WN82wZYttYGHo4ltPaxYX9x6AcTd/XWN5zz6yuaTEOnXczh6lquIOCGa19wSx+daEuLdoeyzv1dfax/92WM3i4t4D0Mh9Tjrb/j7YxlXV//bT3xI3giNEBsbBtUWQR6zAa0LcfGHkRO1zfbV9/IsaahYX9x6gB+PIo06WQZf9U0oys6xTx+3sUarruflusw/e+0A+/fhT+6MBNQ3p8tXG7ICrMXFHj7ULF0nCuZdGxto+3q5RXNx7CL5Ljdlg1rsJRe2I1+mV6ogbb/pV46+lT68+kpw0wdaja5oJmi6bWD7/9HPLr6bEzdcaL+nc3b6v3P8gYM3j4t5DBH8uJ/npF6Rwdpp17ridXtmRuBERYooVN3vJ27X9SZYsjNm7XgvHzOmz7fXO+tHvUIsV97z0+duUs4KdiLtg2gzbT+5/Tqh2cHHvBZb17Gud2444HX+HnltFVNlz11extWvbThbMXRhJLua+moKDPeeIm/F3kDdLct+1+M7Ww+26qopbD5a/lmo00P/08yPt4iF5jePi3sMwIzz5lfpSOHO2dfJ4nb+yuAP44wDsHENUvMxR5+XIVx8NHzrC3r+u7m60qkK6bF4ZrEMKxtxsbSV/ysEWVzbMxLvvt8RdMGOWtYP/lZHaw8W9h2EHVv+zLvp1O2qczr8jcSOyFcszzYtOTZmqTLMXPdiwsp3XrGG2lG21v082c9pMyzdV8+frjtkNF3yZw3b8hrjntvxeEs6+2MfatYiLey/AZo1xDz0pRcHYmyOm8+9I3LCjI961NQnGY4fHjgxLZXFHjwKNWsY9+Li/AVbLuLj3AnirvqecK5PrNLA/Y1txVEHc+xWx4o4em9atl2lvfxDx2h6S1you7r0EY+/E8y+33VkVAg+5uDevX29/nIF17W5/8z8+UNu4uPcStvRz1Mky5OqbZO38yEy3HWEUd/RYM2++JJxzqdXdNvbEaRen5nBx70WCtd0JT78kBdMjf1SPI1Tijh7Mjk94+kULxf21zj2Di3tvox6MPdVT6r8pa9LmmhAsko0nlv2NqLYxXCl1Grio9zAu7n0AOn3vY0+T1NfflpKsHNm6pVyJI5b9Ccqv9WDv+MTn65gB811oexYX9z4CHZ+/4z32P49I8YosKd+0Hwtcy035qcfY+x61ermw9zwu7n0FwnP14H1OOFPG3vvwtn9+KHbWeV8mZoy9bvFSM1R9TjzThb2XcHHvSyBwPPgxp8r4R5+RjH6JsqloTVQuesQT1L5C9OBNL8qd9NgzVg8Tts+M7xVc3PsgCKIrf9f75jtlfuu2sm7hYg11NdYNjnji2lvEHPxJILbVUm7K7x577+Li3ofhu9f6nXaeTHn1DVk1eYqUFRZuK6jKQtuTBEd5uX2bCltpUxu8ZeX1vxqyb+Di3sdhswcTUnyLy7xWbaQkOzsiqniC29PosX55hsz67Cvpd8YFkTJ7CL7P4OLe10EsUYH3VwENu+5WmfnBp1I4O+ZvjwVHPAHWFJUOPPXMDz+TYdfeYt46mC9wce87uLj3E/Dg3Q85xnZ4JZx1sYx74DGZrR6Tr23akLsyKrlKRzyRVpU4R6nms2LAYJn+7ke2xBW8/EG5XNT7Hi7u/Y2oyLv+5e/S+5hTZdQd/zEPuqxbT1k5drwUzUmPfMNq8P3ou3ro/RtXr7b0Vo4bb+nP/OgzGXn7vZH8tY/Yn/5xUe+zuLj3YwiDEVqXPxym/z9Rhlx1g0x8oa4satde8pKSZe2CRVKSlS0bsnOkNC/fJr7Kioq2RT/DGHCeCKBkRaa9yJKXNEEW/dTe0hty1Y0mYvJxL73/4OIOKfaNL2dcKCNvuVvG3PuwTH7pVZn16ZeS3qylpDVpHqFpC5sMm9boA0mp+7okP/WiDP3HzdLnpLN8GSsEuLjDhHpURNnjcIWvL9Lf2bPe+/gz7Ev/+51+vvTXh43oDf0/n/U79Tz7Y4V89XKwVZSOYen4JNl+i4s7zFSIXYWqYo9Mfin83Ob/eo4XO7jOPXZocHE7TkhxcTtOSHFxO05IcXE7TkhxcTtOSHFxO05IcXE7TkhxcTtOSHFxO05IcXE7TkhxcTtOSHFxO05IcXE7TkhxcTtOSHFxO05IcXE7TkhxcTtOSHFxO05IcXE7TkhxcTtOSHFxO05IcXE7TkhxcTtOSHFxO05IcXE7TkhxcTtOSHFxO05IcXE7TkhxcTtOSHFxO05IcXE7TkhxcTtOSHFxO05IcXE7TkhxcTtOSHFxO05IcXE7TkhxcTtOSHFxO05IcXE7TkhxcTtOSHFxO05IcXE7TkhxcTtOSHFxO05IcXE7TkhxcTtOSHFxO05IcXE7TkhxcTtOSHFxO05IcXE7TkhxcTtOSHFxO05IcXE7TkhxcTtOSHFxO05IcXE7TkhxcTtOSHFxO05IcXE7TkhxcTtOSHFxO05IcXE7TkhxcTtOSHFxO05IcXE7TkhxcTtOSHFxV4UjT5QecMQJRtxrwkRMXXdE3PucfQoXd1XQzs7PXsecKr2OPlW6/e1o6XH48dLzqJO3v7YG2EZE0bz3JNSz97GnWV13RJc/Hq4cJt3/dsxeKWM8tjHA+0iZ9iYu7p2AiAdfeZ1MePZlmfHuJzLtzfdk2PW3SZ8Tz4p0ojj37BZqMMyIHHWKosajlgzIjuh+6LEy6s77ZFqjDyK8VYnoZ5NerCej73lQBlx0VURIe1lMvY7Wdjs60mZ7o932RVzcO6HrX/4uM97/REqycyQ4ViQMkqHX3iLd/vr3uPfsKhiLPiecKSP+9W8Zdcd9Mubuh2Tw5ddFooQ419cGXf5wmCxs+3O0pr99FK/IlPRmLWXI1TeasPaawDXfPiedJYOuuFZG3/WAGqf7zSD3Oens2jHA+wku7p1AZ1/arVe0O0eOrVu2SPITz0nn3x8S955dpdvBR8nAS66RvPETZXNxseW1uGNX6fL7Q+NeXxsQbs//7gerY1WOLWVlkpc8UQbiwfGWe0HgPQ47ThLOvUzSmrSwMm3dvNme2bAbbrc2jXfPgYCLewcwfqOzjvjXXbJqylTrNLHHrM8aS9+Tz4nvVfXe7occE0HD3O28h56nQwbXBGNEhDXggitkNflt3Wr5LO3WUzr+7z9ZOtsJh3z0czowUUS3vx4VSY8yVb62ilCGeZXETQg+7LpbZMQtGlHcdb+kvNpQcseMUwNUYuc3rV8vy1RMieddbvMRldPsfuhxv5ZRf1bUudJ1fNY9pl2snfjskJg6Mt+h18TWj3P9z7xI0r/9zsrDsbx3f4uuMM49jtjzBmdfwMW9A4IJs7RvmsuGlXmytXyrlBUWiehP6zx9+stwFX7lzkxnJLSmYw277lYLD/udccGvnVk7Ze/jzzARM3Yf+s9/WUjJZ/31QYx78AlZPXW6lG/aZPlkDhpq41pCTia5rFMrJgIV9qDLr5Ux9z4s4x9/VsY+8HgkvRPPjAgEgxBTtqoQT9wDL75aOvx/vzehdP3zkTbfMPruB2Vl0oToFSIbcnNlyFU36DDmyEhalFHz76qCHHDRlTLmP49I0iNPW1mH/ONm6alhPHlViFR/9j35bItcaDfajzZj/mHw1TfI2PsetfsxtglnXWz3mAFWMCrMEyxq3zlaGpHsYSNl4vN1rJ37ange1O9AwsW9AxA3njl/Uop1luIVWdphRsnaBYvt9/VLl0nq641+7cxREPuAC6+UJV16yNLuvWTOV81k5G33RDxRNF1C2NTX3pLlvfpZ2D3shtt0bH2tpNRrKFmDh0lJVnaFuNYtWSaLfuks6S1aS/+zLtL0Ix6N/0945kVZ8MNPkjNqjKxKnSYrx0+QJZ27y8yPvzDx9TvtfDMCseXbGfHEPVTF2DWmT1CHzr87ROa1+qEiwuB6DItdFxUsRg1jNa9VGy3jWGvLnJFjZHGnrpLa8G0V+U3SM2r08O5DrrlJpr/7kSzr3tvab+Rt98pE7Y/UKXfseMmbMEmNaoLM+bKJiRnjgQFgkm9pjz5SOGuOlYVj/bLlkqt5ci1Rx94aMuxNXNxxiHiMU2S4im7j6gLrLHkqnMl1Gsjclm0sDOVY2rWH9D5OvWnMvV3+dLgMv/F2O8+xZv4CmfzKazYxx3k65Mhb75asQcOiV4im+5p5JkLJuIcKiMmrgZf+w9JH2BiWTWvWRi+IjDO3lpdHfxMpnDFbJr1QNxKBxJRvZ+xQ3H+K6RNHnmS/Y7g2rYu0BWUceq2KWz83w3jquTJFy7ghd2XkvB6x5ePIGjLcjBppEnITeawclxw9y/kRsm7RksgvUSMSHBkJAy3iIa+cEaOjn25/FKXPk+Qnn7cJv4ro6QDBxR0HBNj/jAtlxgefyaa166yTLO/dTxLPuVRDw6cqBL962nQZ/8RzFeEh99K58cTBUTh7jkx66dVtxM1s+ArtnBx0+Mmv1NcQ/06Z+tZ7Guomy+b1xRWduThjhXr4vrJYQ05ETWee+sY7UlZQaOc5CmbO0gigiyzTMpbm5VfcS1oMHaxeVfRa8cSNh8WoWBoKIumjw4ilXXvaeeqwdsEiGXzFdRUefrSOzbeUbrTzHOuWLJXlfftL7uixsmVj5PNyNUiUEa/aVdMfe/9j5tljj5KsLPPADE8wFBURzeKlauDetrxmaaTCNeuXZdg5Doxh3oTJGjV8b5ETS2X2nGLqGnZc3HFAoIMu+6cUzU6zjgvpzVpZx+93+gUmOA6ERMiJ4AKvUDVx3yUr+v8q7pS6r0vCORfbWH30vx+Qwpmzdcy92c5jBAhvGXczkZT06NMmiODI1DB+3ENPmPDx7OMfe0ZKMrPs3OaSEgtXrXyHMzF1jJUPocaCIC3c1/LFE/fwm+60+/uccJYNVQZfeb0NBxg+cDA/sESjmMTzLpPOvz/UlsaWdOpm5ziWaog9/MY7InMH6qmnNGgkhXPS7RzzGaPvecjaj/F4rLizh4+0oQfjZu5L0noGdcPALvzxFxuTM/wYees9OnzpZOc4MjUyGv/YszaPwZJY8GwPJFzclYiI9GQTUdDBC2bMsrFfsPS1vG+iCmeDnWOcyz27Je56r0vfU86RTv/1V0k891LJ17FleVmZnWd82uF//sHG8ohw1qeNI95Zj03r1kmSijnIl1nj3trZl3brXRFxrNWwNvH8yyzf4TffKVNee1OmvvmueX+YptECxmXUHf+xdJg0qyxuhhCIleWlZWosMChBGYgSWAobefs9OkQ5XTr998FmYMrWrLHTm9auleSnXpBfDvp/0vF//VE6KEzKMR9h5zWsn/3FN5FJOjVsseJmXI7B6/KHQy1sJ2pYNXmKnSO6IZrqdexpVmYEzuRncCzVcTsRB88Mw0TdDjRc3JXAuw267B8yt8X30W4iMv/7H8174JVYlpnwXB1ZM2+BnSP8Y6yJB0HguyrufqeeZ16T2WI6cDBbTuhLvtyLl13Q9hf7nPvwfgk6VCBPQtvAyKS8+oaO9RfadRtWrlTP+IDVC8OA59u4arWJE8qKimSNjkvnNG6qaZxkYqgs7h0dzD3kjByt3vUlNSyRJSomGBFlcDCxNevTL2XU7ffKuAceM0aokckeOsLOb96wQZbpsAMPyyRZrLjx1MEwwCIPbTu8OccWvW9F/wEmbvImaohdClvWq59GHHeYwYt9vgcSLu5KIJRxDzxu4+ngmPXJl5Jw9iXWARPUs4666z5ZPXWanSsrWiPz27TTcP18E36tils9WEa/RPt8i0YOmQMGW6cOluOCMaUtp02bYdeV5uVJsoa2CC+9SQvzlFtKSy1kB8a9jIeZHMNAxBP3Rh3fEz6X5mMMIh6ZgzwQdhDRIEKW62Z+9Hn0Ci2njrs3qxHYtG6tbI6yae0a2bo5Uj/quXJMkkUsIzV6iBU3YTVbSQOjZZNnakw4qD9t4eLeMS7uSnT+3d8kpU6Dih1iHKXq/dYuWCjrFi2Osmjb8yoglr8QcG2Le3nfBPuc/AltE865JPLyhp4PxJ308JNSMH2mXYcok59+QUVwqoXleNVpjd63cBymv/OBbUr5rbAckVBu1ovH63AlOCjjvNZtK3bQIUAimJkffha9ompHgRqJxPMv19DexV2TuLhjoPMwkcbac3UOlqEYo/c+/nQTYqy4C2bOlkkv1rXNHORh4r75LsnQkJKjeuI+zNaAOTjPujGiYGealV8FwE+MCUtAHIg76ZEnbZMMQiDC6H/GBdvAeJUxr+Xxx+3FzUacTv91sI2VE8+/QrI0pA5mvCnDaA2nLX9tPzw3kU5wsP6e2qCRbdjBgIzU8Nx+3naPjLj1bjN0rI8TfrPRxcVdc7i4Y2DShsmlouhMLkeuhoyZg4ZI9rARNk6ErKHDbfvl+ozI0gsCTWvW0maDO/2/v6q4f13nXrtwsYm383//zYSNgJk55uUTju3Efek/bLtrIG4mspiEIuRnzD23eeuKyTzCZWammWgjbUROhLDo546R3XR6rF+eYTvEbExuu9oiO9u2QT9HOLQBZags7mATi4n3uNNtySqYKWdSb5lGELaOTPo6tqcNt26JrGkXaxslPfyUtP8fv7O2oR06/d+/WBRC3j2OON7yZKxeeSms6uI+yozc3Bat7RwHk38YDdIOjN6Bhos7Bjobwghmqum4vCDCphRmgyu47W4bdy/p0t2uY8YYD8WEEPvA2RFVXhYRJ+NNlsv6nXqujdnZKsmOKjw6xzbiVvGy1ZONHEEZViQOitynY1LKl/z0i5ZXcMz+/GtbmmK5h+UwPOHa+ZHJPiKKrCHDIuJV4tW5Mr8lbs5HhHKyrTuXb4yUsSQ727wkITlRBm9lscIQHMt69jFvzd4BVgUYSoxVLz397Q90mNDIogfmDcbc9+iuiVvvpY3Svv7WznFkjxhtcw9EU2x2qVzPAwEXNzBW1U6EgPKSJ1nnQFz8nw7JONr2csfQ8f/82XasxYqAJSY8EKH96mkzVVyRc8xGE6qmNnxH5rVso+KLzGTboYYhELeFvRpesvUy8M54/vmtfrAtpX1POVdD6PM0/Gxl5zh4K2tRh84y8YW6MuOjz2XVJEL6yBo5BmTiC3WsjlV9eQJxV34rbFtxazraXqwYFM5Os/O8QLJQjWLiuZeZgSJSmN24ScW8xFatY35Kqo7x35eJz9eVmdoWwcs4zN6PvPXfKtzjIuvco8ba5xzsl99e3BHxx86WY/QoG+/aB0dp/iobXiU/85LNzpOOPeeYuoYdF7dCxyGsTHr0mYqxKstErAnbFsc4Xg8RM7ubHeNpGEfj5VmbZaIq2KaKgJmVDkRHSBu7LZMJLURLWI3IMRKsD9uh93IQprMDjLEvXhKvFRx4f86TR3B9WWGhzPnyGxuPVi77b8GYe37rthXpcAz957Z7yw1tr9hXYSkvb40xfEBsCWdfLHNbfh/ZbRc9qD8RDREFB8YPAzpEIw/CefPco8fZOY7kx5/bTtzsRONgzM8GH8TN86HceHpWAmKPtYsWyzSNEGyp8gBb73ZxK3QaHj6eL3v4KJvhRjx06mD9uvI9jF1ZFpvy2luSP3mKvcnFLq2x9z9qs9d0bl4LZXJs05o16gk32zg4R8fqvCDCchGelZchxj/xrO3FJiIggrB7P/kislNNOzHLRuyKYzxOFMGkFaH4lAZv2bpvSWa2XUe0UaxjbPa84/UIdwOvVlUYs+Nh8ydONu+aPznFJvkqT0wRCrNnO6NvgqzWYQITa7yFxW46hMo1RCHsm2cde+3CRTZEoR02qlddNSVV0po0l2HX32pbWTEKzOYzJFg9fYasUk/PHnzztkpE3CeY4eFehi5MoEVEe7zVk2EJKx28BxAYx6I5aZL81Iu+t/xAD8uZwR374OPC/nHGzzaDTDi3g3vwGiyBjdN72ALKm1iMmeloCHXAhVfYmvmU+m/YbjAmmtiFhZfmPmbYxz7wmN5zVeQFFDqxguFg0wznbSdZw7dth1zw/njQmRln8341ITkz0nadCgzB8OKL7eraUfl3AB1i8FU3WLmpE3XjVUzy3OY6/d3G+CrIcQ8/aeNbdoTZtYhI68GWVspINMNcQdAO7KXnJZGBl2hbqSEw4SqMm4lKgvT43Z4NefJTsfy0XEy+MTFp9Yu5huU6DOyU+m/K9Hc/tHV42nqb6w4QXNwx2BZPDbcJQRHGTi29dhZExlgZuCfwvpwPzrGExUQTP1kSC8RJPuRn91TqeMF57rN7dSxr5YkRK+mQJ+NkZp/tOv0/ofhOy74jNH3bjGPtECGS7/bX0nnw6MF13Ff55Qwro15D+SvaQUPo4PrtruUZBPnq77HngbrZeS0f11Y+zz2cs7x+d0jFfEnl6w4EXNyOE1Jc3I4TUlzcjhNSXNyOE1Jc3I4TUlzcjhNSXNyOE1Jc3I4TUlzcjhNSXNyOE1Jc3I4TUlzcjhNSXNyOE1Jc3I4TUlzcjhNSXNyOE1Jc3I4TUlzcjhNSXNyOE1Jc3I4TUlzcjhNSXNyOE1Jc3I4TUlzcjhNSXNyOE1Jc3I4TUlzcjhNSXNyOE1Jc3I4TUlzcjhNSXNyOE1Jc3I4TUlzcjhNSXNyOE1Jc3I4TUlzcjhNSXNyOE1Jc3I4TUlzcjhNSXNyOE1Jc3I4TUlzcjhNSXNyOE1Jc3I4TUlzcjhNSXNyOE1Jc3I4TUlzcjhNSXNyOE1Jc3I4TUlzcNcWRJ8b/3NmWmmwnb/PfpPbErQ3f4/DjpccRJ8Q/v5/T47DjpPuhx0XqqI3Y/dBj99u6Uu7uWh/qUWuCoT/QTocco/lF8iBf2nG7a6uAlZk25/5aLTPP+djq56HX06a7dG8NUTviPupk6Xfa+TLylrtl8JXX62d7p3K1BQ9s3MNPyaRXXpORd/xHxj34hEx9632rK5033j37KtRl4CXXyMTn61g9+p50thmseNfuKqTX7/TzZeyDj0ta0xYy6PJ/Sp8TzpRh198mSdqO9Jce1RAAbTzoiutkaqP39f4npe8p59Z4mTHc/c+8SMY/9oxMffM9STj30ohQ41xbGa5LOPcymfhCXZlS7w1JOOeSKt9bk9S4uHlIvY4+RYbfdIcs69FH5n3X1jp9XK+GddMH1fWvf5duBx9VYcVpCLB7uCb6O//nIXJt179E74n3UKP3cA1pm0eK+bybftb1L0eaZQ3uiU3XBKrXVnz+t6Mj+elPysT9c75qKos7dZPJKvBZn38t2SNGyag775NO//cvkXJF6/vr/UfqffHLS37d/3aM3qfXadoV+dPpY8oV5G/10LLzO2WxttLrrC2jdba6RetQQfQ+zls9rY2OlJG33SuLO3SRWZ99ZUa5y58Oj7S33hPJX/ONlptnFJSFclnetIn+bvdoHhW/R9uXPOgDs778Rqa+8Y519n6nnSeTX3pVFrRpZ/2Fe7tpG1jatFO0/WIJ0u34f/4sI2+9W3JGjpbZXzSx9CgL57Zpp9h7qQefB/Wwemk+MeW1e/lMzyHu4Tfeof33B0l59Q3pf8aF0bJF2zfaPpFyH13R1vy/yx8OkyH/uFn7R1dZ2rWnDFZDFNzD/RCUI7Ys1icPibRhcG53qHlxa0F7HXuaTHv7A9m4ukDWL1suU+q/uX1n4//aeQdccKUMu+E2GXLVDRELrJ8nnH2xPrBLpc+JZ0qvY06VRLWafMb1fU48yzrK8Btvl8F6Tx88TeXG0N/7n3WReoZbjb4nn22f0YmwxkOvvcUeXP8zLoh0Aj3X+/gzNL3r7frE8y+PlC/6+cBL/2FeZtDl10ovLUPXPx8p81u3lRX9BsgUffDpzVtLwfSZklKngQy46CorV69jTrFykfegy/5pxm7INTeZx/q1nJGfAy64QgZceKV1AvJJPO8y+xyxWn31c+o78OKrtW1PtXagHuRFJ6Jzkw/l5rph191idavIJwY66bDrbpXhN9xubUpnHH33g7IicbCkN2tldU1Ur0P7cz1ip/x9T9Vno23FM6KNKBPtwbPhOQ285Grzbr312fc56SyLBngG1o6azvjHn5UlXXrIiH/dFXkOmvc09bxLu/aw33nOpEH5h/7jJvs9ttzAdZQFprz2lrX53Jbfaz6RvkHZqRd59z7u9Ipn2OtojSS1PWivvqecY5/xkzrQV7mWe6xPXXmd/n6a5ZX0GGXubnUkf/IZeu2/rP36na7tq+kknH2J5qv5aTr8Tjq0EfXMHDhEViQMtHx4lrQ3z4Y0eF6BAaK9hmidh998Z+TZU+6Yeu8qNS5uLB6Cyx09Vgpnzpai9HmypHO3iKULCq0/abwB2lnTvmomWYOGyhL1guMff84aKUVDmVS18IiBToqhmFz3desseEesYfbQEbKsVz8Zfe9DJqQgbRqMzp76eiPzplyX/MRz1oB0/ikNGsnyPv1l5bhkE2M/fRAIbsx9j8gS7WjZw0fJzI+/kAHnX2FlHPOfR2T+9z9K9rARsuDHX7Tj3WwPal6L1pKh6aTUa2iiKJw1R5Z26yVLtQNn9O4vQ66+0crC/Qt/bG/tsbxvgoz+9wMm2B6H63hTz2Ms8PzpTVrIonbtJWvwMEn78ldvNOr2e61tqMcCLcfQf95swp7wXB2Z3+YnWTFgsEyuU1/G3POgzNH7soeNtLISUVQYr2i7IGw+z9LzOVrPGR9+ah0Oz53RN1HStAzjHnlK0pu2lKkN37E2HfvA47K4Y1crNyKY8OxLkjtyjMz/4Scr14z3PtYy/cs8XOqb75rA6fzz2/woE1+sp534HHtm81v/aHXDmw3ROmCgGcrMbf6dCXPkbfdoyN5SckaMtrIgNERGua2dVOy06cKfOkhG/wHmtQtnp5lhRXQjbvl39DmN1J/tzABxD5EG5R59z0NWRn5iIMdpOE+0gsEcftOdZqzJmz5A3ogs5dWGJm7SQcT0yRWJg6y/pr7+tvTWfjOlwVtapvZ2PY5tQduf7dwYNZiUM0Of+SA1OgMuvEqmvfuRfbYicaCG+89aP0ArSdrmS7v1lLykCTLzA30m+uyD57Y71Ki4zYMqPLgtGzaYx16olV27YKH0VOsZCBBvQaMu0E6flzxRJj77ssxp3NQEMFo76aKfO8nCnzvKqDvuM6+2rHtvSf/2O0l+5iXtNO3sunEPPSH5k6fotR3NSlooq2l3/dMRsrh9J1mVOk0ffCsVTmMpyc626xEi1j75qRdktoaIq1KmmiBG6bh5w8o8E/3clq0lUx8eFnegWvqSrGwT0MxPvrAHX5iWbl527retZHnvfhXiXr88Q8vYyupRMG2GCRzvR+fIHjpcJmkIuqxnHxMpnZ0QzKIcNSAYiVUpqZL29bfWWcoKCi0d2mW+dkhEMU7Hq+sWLbG2mKCfz/7iGynfvNnKOrluA5nX+gcp0rJNeP4V62yId5qOFQkHrV00pJyuQkTYc1t9rx3wLdmo+ZDfCA1xM/okmLgnv9JAcseOl4VqaOhg1G/twsU6Jq+rnfBpK8PiLt3UAH4uRXPnqZEcb2XLS0rWfDuaN8cQ5E+cLHO+aS4TtT/hwTKHaBuoYckbP0HmtvheDVIDy2PVlKlWvtxRY/T3X2ycyrNHuIg5Emar19MOn61pkO70dz6UtG++lbLCIusX5JGhzwvDPOnl+rJSy7Lgh581IrzdQmAMKB61JDNLhx6NLULjWSC85Gde1ufaU43FGHtG3Lu4YxcZ/+TzMkefR2n+KvPu81q1kSzNnzmD2WqMt27ZIuPuf0wNRGfr3xgTHFvRnHQT6nh1KBgpDDqRCP107SJtR60f/ZK2m6TGj4hu3cJFZkynqnHEMGM0MeyBXnaVGhU3AkOMdPI18xao1/mPTHvrA+1082SCNiIhLh2a6wh10r5uJmVFRSaeWZ82VtG9aOHOovad1dt3l1F33W9CopHMGqtFTXr0aVminoSOUZyxwjoLYkUseAA6Qf6kKTYkWN6rr4V9HLM+/VJmqFUsVhFmq4VOV49BQ2MYUtWbY4zGqFUnmqATMzac+OwrNqwgCuABk8/W8nItl3oi9RKkH4i7QKMUQk8m2DI0XM9LnmShIBM+XEt98idMNg8/9oHHbFwbiDtz4GDrmKSPOFaquDL6JarXf1jG3v+oGqvO5hE25K40MU99412Z9Ulj61Rj73vUPMhI9fBzNZrAs2H01s5fILN1DN01+iwZFhF1TG30gXVeDBPHjA8/My+DYUPcKRoh5amAeAaIGwO9bulyuw6Ds7GgQAZfrUMoDStzR4+TghkzzfOsmpRiHp6JLqKI1Spa2mVeqx+sbQpmzbayFc6YLaunTreIjd85x3PDgNFniMZmfPS5pYnXp40Yg+MMStUApzdraX2Mia6itLkWZcxr2UbLMUsK56RZvyjQPBDZBHUGXf54uImEdka4lGfa2x+aIZz+/sea1xeyWg3+uiVLLTLD+NPOs9XoU99N69ZbZEiZVyQM0KjjJjMUGAnC/KXde8l67Yf0TaLTtQsWWVsmP/W8GQ/aGU/O8+R3IkjaiHvmf9/W+kfJikxtnzkWDdH+DC2od2V9VZcaFTcdlvEEVnf9smUWouaOGqsdosg6Lw8Lr03BGZdQMTrtgh/ayaJfOllj4vUXd+hqvw+/+S4LQZmYm6sPcIKWbaY+DDr7ZLXQhFE8MKy1dWIstHYCHiweBk9F6GmWVIU3Vi1tWpPmmp+GlOpR5xINqKDwXpvWrLGZ4o7/5y+SSOfR66e/+7F6rUUy5t6Hpe1BB1nZOCY886KWr6OVKyLulrJKBUVoyYOn7HiYEbfcbeVdqJ0Gb7NAw+jVqVNtVrqLRhgV4lbjtlw9PddjAJf16G2dYYp2CgwPIeOkl1+1NJerh6VzzvjgM/OW/fXhUe9JL9U3QzbltTfN8q/W6AHvzvwAz4Z2p654ICbO8OpbSkvVSHxpBoL8ETdzCHkTJtlz4V68GR6Hzswz2LhqtXmVnw76n9ZxETchLvVf2K6DtR3tQFlJjzaiLFlDhml7fmQTkTxnxsy0E6Kk/AwXCJv5zCb31NgzZEAwRB+EtuUby9S7vWN1GaHj07zxEy2UX9qtt7brdPN6lkfjJhZZMelmE2RqpEiHfDFAOTpco05DrrnRhkSF2l/y1TjxjLiG/oHhp/xlRWvsGa2dv1CF3NNCetqF8THhPs+KqG3INTfYRBrD0GVq9JPV85u49f+0N8Zr4c8dpOP/+qM+9xPUmCyzcyNvv8fyXKj9CYNKG0x4+kV1gFpvzSeYlNwVak7cah1pQLwenYbQOWf4SBM3Frm8bKNNNJEhBe536nnmweg8E597WcU/0kJgGpUHzNiEcTaTPaRBx5qn3nvVlGmSO2acpYVHJyxE6EEnZvyM4PGQKfXfsPAIYTBZg3XFiiJOHsqmtetkkXYkQvZN69bZ+BjjlFLndRt3J2sjF2soh5FgzJVS73Xz3JTbxn5qofFsjPuw7ISjZpxUXHR2jA7eJHfsOA3F/2PjajozbRTruRkC5I5JsllZQna8GcOPeTpOJcpgnIe3NI/ef6BM005I+QjlmUcYeOk/LVoozc9Xq3+beTM8EIYs8Nx0PEJRIhfmMBjLby4uthATcXM/npaQP08jDCIE5jzo4CXZOZLa8G1rh01r11o98Z65Y5NUVNMsLMeLE4EhdLzPGu3khMxpGpoz9MocNESS1Nsma9sz7qUNmDthmINBo6159pQtX6OezdqHmGhlmIVAieAwtIt0yIUgyAMvSdtjXMmDsBmjPPGFOhbxMDFoKzDaNxE4wzz6TFlhofaRCfYZDoNIj/YnGqB8RHCEy6z00EaMubMGD5csHVLRnyjXbBUkUR7h9vqly7T8L1ifpA+buNWQrtBnhZFmmZHnRp5MBo7T/sN1DJ/ob6kaklNuJgf5PFuHCKye2MToWRdpH/l1SFsdakzcCBZLS2fZtH69VZwO3Pn3h9qkzJYNpdbozFIyjko49xIbx9KRaUS8AA8o6dGnzGOuUku8Un9fqiJct3ixhZzT3/vEGglLiwHYkLPSQlDCL9KkHFh5wlE6QqGGbQs0TMOLMK5GiITyCJsJHvLGu9GJ8fRMdGCUEOY8HRf2VQPEvRgQQudCDS3pjEQds7/4Wse/vczjMDaj7ORByIXwV2rHp4NlDR5q40qGFcUa4hP+YUwIFwNxY+EREB5zmbbDlo0b1TA1NMNH51ijITZp2vg/cbAZKNoIsSNuwv95Oo4uycoyQWHYSrJyzCNUiFufBSHpOvVYmWosaAOMMOkQmTCWn9O4mXU2xsjBHARtRJjKGjWGtnhZho3nCUcZjxLC8znj6DU6TMhUD4XIGN/SLrQt9SvNy7cIio7PkAhDRnRA2zAUwzhgKBALnpvnxwyyLQ9p36LNiVaK5s03kREJYmgwPiNvu9ucAXlQLybVMHDUBS8f9FHG7hheDHm6jp0RLW1HFEe/oE6UD+/JTPkcHTqQJh6aOYI8NQKMlTM0PMdbYwQYvuXrc6POEYex1p4VYiVq4bOBF19jxphhFG3K9UXpc20eg7ajrTL6JVgfwbAybMLgrZ46zfo2k8wYoqAeVaXGxE1HZQIJKz5ZPRweFKtJeMFMIqEvY2hbUtFruQehY9Vm6nh42tvvq0e43xocCE1maYMw3h3/5HPaCA9YJ2AZC8816/Ov7F4sJp2AyQwrC+MrvZ8ZULtOw0lEx3INa6sIbraGbczyjrrjXumjY0cakjCPvMiTB8NDJ1xkUof1WCaQmD0l7KehmZ3F07OEh7clymAMxtIRQkD0DEOIFqa+9Z52zE9sDE3YSIeno8V6bqINvBLDCLwY6RC+Ef7NUiM4TdNg4oiyMb4efv1t1uEwQHRgyonXYwIR74kXHKUelmgqeD48BzoLbYcXTVFjR1rMbvM77cQMNfMGdEbqPObeh6zeGC3adaTWm88n13nNxryMpfFyiedfYcaTSSGMOB6OaIV2x4PiyeZ83VSmaxkTz7vcZu4xKjxD2gCPRj6E7URIbHRhniN2mZPnlFK3gbUn9WNcS9sz48wcDqsilsd7H9mzsJ1wMffTF+mDGM3BV1xrz5dnSbvQruQ9/d0PbUWijz47hkks11Fv0qGtmHug/kzK8TnDRuYHmKAd/8SzVgdEzwoCvwNRan/tu0QrlI++YGG91ocZc9qd50a69M/eJ5xhwy0m7Xjm9gz3pucmcywcAqJj0nBWIIVGQJgIO2gooMNxLQ+CBqZSfEZl+um1eCUmyBBJxVq13s9nAy++ytIDWzsmzWhZuJ8Ow3UD9Lrex7PmGSkj1yJQwkrKGxiaiuv1c4zOr5byZFtS4nMa3K4nHX0olMkekHYuzpEe6eBlbCxMutpBLV0NK7mW/5vhi9af6xkDsrRDqEkYRnrkQT1Ik7aBSH3Ps/YgDfKw9XTS0bEga8fUjUmb4LrYdqENKNuAi66MPKfTz7c6kB+/B/nyHFjSos7kw7PDULNktiK6vEOUsyEn1zyRPWtNn/Jg4DGMQbp8TlvyO0Mj6hGUh/JZX4mWjfuZsyACtPbfpuyRDTg8C8pGHqTPPAnnMYT8vyIPhBt9tgG0uT23oB9GP+upRqDiXu1zGDjy41pbq9e0Yp8F7WLPL9pHqEfEsMe0adSZAM+YPCgvz4c0yD/oS3hmnglpkAcg8tyk8eZEbOY8ph5VpebEDVRYC7zdJIB+jmcNKhN7LuLdj7HGi30Y23yuhQzO0aB8xjmuMSqEGJNu7HUx5618pFv5823SjSkHZa8oy68bcWydWtPiPkuT+nFOsd/1nu3SteuiO++i5+g4WHLCY8JIwuiK/Omg3G950w7R+kbzrShPcF1MPsF1lk4AZYvWhTyCZ8K927Sx1g0vV1FmvYcZa6IDhjyMcRkmMXGF92W5ibRJz8pg5fw1vUi+mo5GKxU7sPgsmnZwjd3PNZqGXROUOwZ7FjvKg/Ri86h0LwR52rMKPq90rz0XuzbSphX32rOItEtF+sG91qZaNtLW3yNtShlj+8z2efyaLp9H6o5RIXogAgwMa3BtdaB9ak7cu4A1BI0QU9m4RBsx3nXWOFVJYw+ws7LwuZ0LOoeCJY/s9Dprm8/3KdSAMJSgAzIMGnTZP6ysNqbXc3Hv2R007cD4xD2/PxDts9V+plb3yFZV6yu72L57XdyEQIR+hK/Bdsy4aAUt7GX7Zezn2hCEOJE0tt+yuEehLFoPRGr1iXMNIRjnLFSLfmYhHh0AYq7dV4lnoGoa2ofhBc883vn9AerAUIxNNPHO1zZ7Tdx0Djp5yisNbF2RyRBCv+2upQNp4yTqWJVZ4nEPPWkTSMF5ZsmZxGPmdeyDT1hjEk5tk8Yeghlp3nJi5j/p8WdM5JQ1CLeoR/KTL9hkExNI+7VXqiWYBMNYD77qBlsCnNrw7chs8X5i+IC+TZkZxrBez8oRfSDetbVJ7YtbOzSVtW2EBwdvXUXepCFzdm+lNnjLtnraWEobgXMsgbDGadsnNQ0237MBg0kn27qp97K23f5//M42krD8w0YOE5QaCcJFxBZsYqhcLjoLbztxDdea+GIjBz1voRFl1nxsvTX6thLGI1KXI+2niVfpc8IZNrPPbDQTMZxjhpx1TGZ1GX5Mqf+GrRkPZbtiUFfN39LHaEU7MeeCNqgIz4KyVYY2VkNB27LEFpSTc/ykHFbP6LISn/OT66ytovnYZ9Frg3G0paFp83uQRuWy0Jb21lN0rBvJM/KWGP+3ukSfB/8PDLaVWe+z56xl53faiEk2Nn6wGkDbMftvzycmv6B9aLOgvGbUKUtMPa2fRMvMtdTP6kye+lzNwEb7KOfsWQT9gfujn1e0X0w57DxtY+lGHE6QH16bWXA2MLH3gX0GVkbqrtdZ2+swJ2jj2qDWxU3leVhslKCyLAcMveYmmw1n8zwbUtgVxYwjFpuFe5ZmJjz1gi0nsfxAOmzimNe6rS2F0EjMSk546kXbeMB6M+uvXE9jDbzoalvyYVmC3VLMlvOQtimbXseeasTGHl92VvGQ+ZxruYeHwmwlabFRJnh5ghlb6kIUwcYI9jDbyxzPvmxRCNYay81nRBSsFfM53prluchLMZEXS3g7bdILdW15hiUlykYHYokNL8/LLSy5kd425Y+BzsesLJsjiG4oJ7O/CIbhCmVNfe0tGf/o0zZbT/p4EwwOE2K0I0tSbNRhgwntNlaNEsaOMrJ6wHWkQYRlM73R9uT5MgtM9BS8ZcXzrngLTiMpnh1LVxhhvBkdHwHYRiatG8+NvRDMgHf+3d9stpl1c/YgsN+edkCMVl99Phhwxv0sQbEZhzZivZg+ROSGMWB1gjIyn0HZyIsysWuNutCP6DvkSX+ydrrtXnvOLD8xp4AB4XmTBzv/qDsz5WaEqbumz8w+y67spuQzZvJZ5qJfkA+vtOK4gj33lJ37WJLjDcBgZt7qVsPUurhpOB4EGx9YNmH7H5vkaUA2DCBM9l0jepYh5nzZRBb91NFCWzaP8LIGnYP1bTYZsMZJB2JbJpsVSIPtjeuXLrdOwsOc9fGXtquNlwF4zRADwcOjUYExEMYGwbEDjA0qbFigU2Lx6fysw+JhuZ+dRmyyYEMJnRFBUg/2tc//rq15F0S76OeO9nIDGxem1G9oogo2cLDxAjHx0gaefcS//m1iYMMGy0tseiGKYa87Akxv2so+tzpqemxZtTrgaWLaF09AB2QdmY0UbMFc3rOPDQ9Ihw7GZgp2AJJeqnZSOj5Dg8zEwbaVl/ZnnZ2992yC4f9sahmhnZa02WnHG288D+ozSQ0BxoSyIAA6NLvN2GQU6ex3yJKO3cxgjL3vERMo+bMFlRc66OiUnc08mQMjL+mwcQYji9HG8PHyENdH2vINmzW2+urzIT/Wstkyas96TJK9OEJ6XMfntAfl4zmv1OeE02DHHpuf8KZs+WWHH+8qYBRGq9iWaR151nw+4/1PZKAKnDX/RT91sDICb21hKHAE1J2+zRZWNsfQVqSHE2IDD0aJPk+/Zr2c/sNSGH2M3YKUBwdAn4x9pjVFrYubPdRYS/Yks12Q1/wQKNsdEQ5Wju2pbE/khQwatyQnV6Zr47J1kW2UbIvEMtvmfvWEbEDgxZDFnbva2zsIbb167pS6Da2DFsycZUYBsbObjYbnvWc8HDOwWHd2C/HQ8aIzP/nS9owP/9ed1iGwzHQgtgMWZ2XLTPXEhImUk9cd8TK8dVaqDcZbQuOfeF7WzJ1nZaNubN3kRRQ2xrAZhM7Hg2R9ldcF2ced+vo7JgbSRzzsqLL9x9qR+OaPdYuX2ltVvPFFx189bbp1DOoQ274srSB83vbiBQg6I4aIDTFEEBl9EoW9/uMefsI6dv7EFHspgr3dm0s26Gcd7W27ZVome5NPxU+ZWXtHWBggtleytZToIq1pcynfuNG8EJ2UtmIIwtZgDBjPGlGze41nhsFhay47+tgowosYbHSxF4C6dLcdX/yf9wTYN89e/Lk6/Aq2vPLGFmKzl3fU4yMoNsFgmNlrzvOfoeVlxxjbgYmqOGZ89Jm2z4kaFdWTrZs325ZhDFOBloWlPLw7+8YxyAz1aHf2m7OZhzIjRJ753BbfSZYaJl4JxkjiRIjQiF7MsKkx49mW5uVZn2HHXObgodZ3pr/zkZTk5loEiOFmJxqGD+fBrsOsocPNgFQ22DVFrYubcAoPxtZJdh7ZJg31QLyJtKhDZ/Mm5WVltimCBqfj08l5hQ5vTaMjDl76WDN/ob0OSKjNHm92p/U44nhrRN6CYoeUvZPbuZt1PrzAjPc/lXXaOZMefcbGPRZKnXOpdT4aG2OCt6MMiAHPT5nZVWV7xjUqwPuxwYBtsnQi0mKMz4QP40yMBaLiwTLMYOsnu4sI4RARHSX1jXctYgi2fmLtsfBENKRtmzwuvsraBS9pnp4dfepVMHR0UEJawtlt2ld/Z70Zbztd68qKAXXAkNAevCGF1yB92hCPzCuonMMgYgB5JsEe8kFqOLmO7Zy8norh4pVPhNb5d4fYkIntm+w4xHsjbp7nuEeetH3r7NSybaJpcy3kxDDwPPqfGdl8wqulbEOlDLT7TPW8bJqhzDwvXrjglVkMqW3VnDjZXsbg5SIERX4mbvW+iJN6Ef5jbGkzPPfW8q220w9xMxzg2Y59gP3zida3ePuQOpM279qzFZn68vomQ4zIpqMr7CehM29rYRiKMzIjbzg+/WJkaKJjfMbnRAn0pZF33GvRHOkQMeD9aVMTt/YdtrgOvyny9tiaufNtqy5fMLH/i1srz2QT4hqnng8R40F4MISkhNdYcMJxoHHp9LzCx55jvCUPHEtLp+fAGPC1RhgNPCcdFnHxdg0PhZlXXo8sXpGpXuM5Ffehlj9bJTerl+LFBzotnpM9woTEdBYmO0zcGqIS4vHyPiKz97bVclNOvCGhVcf//Sfb9ZWjwwBExs4ivoBAtm61Dst8wrKefVVEDeyhEtqZuD9D3D/azjTyZHKHDoeHWaoC5D1g2gbxMrGkPdZ+7/T//mLls/kB2lfvI+xF3BgQ2pt9+3RMIoM18xdZGcgbYfLGHfvgaau1Gh3ghciffei8JINBwuPyggXio648O4wAb8YxLueFG7ZpUl7SZcyIMSmak2asGDDEjDBtjeAx0D2Pimwf5ZVO9s8jMowjwxkb8+pYNPGCy61ceHqGVXh4XvphHMyQxkJhza9C3IWF5s3Z1ZY/OdWGMIHnnvbOB9JF+zHP3cStzwVxE44zBGQegb35C9r+otFLZ4u28LZERpST3WqE+by+zF5v7ufdeqKiCU+/VDHvQPvT13jnAWNUqhHqTI0a2G0388PPzKnx7S68CIS4GWJ2/u+/2QtFDDvYQckzswlFTS94rjXBHgjLDzcxbtTECdewUggOi8YYmgZEKFQUC0gDrdKHS7iMJ+VNGkJHJpXWa+NgFXkvmVc0l/ftb+M0xMPLDXjJOd9EOjoPKlm9Di8Y8EAJkREK+eNxVk+fYaEuO63oRLxIQOeio1aE5eq51y1eYmH7tEYfWGegnCy54c0Qaqf/Olivvcw8dUb/RDM0CJODsRadlVCYIYjNPWhYj5eYUv8tMyxs4WT+ACvPFxDwGWN4vsWGYQn30ynzJ002wRL2WkiMqLR9KSt70fFaRDh8cSPfdkL7AfXnHNcQGiIaJnmYeOMZEGozhsRwMcxAKGPU6+BVEDfDmeLly21cjlFmTgTDiOgRFh2SNqU8GF7eoiKqwfDSlgg4GM/zrIgWCPsJhUkTQzPm3kdMRHhbxtcMH9ar4WHIwyuphORMRlaIW40zBpxhBBON7Htn0pL6I1rmOJZoGzBRyeuv9ibfg4/b0I/2IJRnfmVVyhQbss386HMb2hVonyAqI2ynLEQ8lJ9h3qSXtJ+pUeZtNwxdIG4iN/oKafByVOBIMBCE9aU6fCTiYgzOs2ZvOuUq0/67YsAgGXHLXea4uAeDsKu70eJR+55bBcU4Aw9Ih+Azwr5MrRiNjVgZd9Eh+QofwrY1OjbHkxOqM97k5X+sI50ED4OX4KHxQBFS7rjx9nYRIR158RDomIRcvOHF5B0hn+2E045Ip0RQOWqFedh0JsL5IESKFfcGFcCKgYNNYEwoTXqlvr0MgsdFJLz1RihIOfFGRB2MEQlHETczuiY8vRfjxTgTKz7631onHXYQlVj4qe1DR2L8i8Cyh460SSjgK6HwYLQdIS1hbpc/Hma/U16bRNSOVKidEC/J8IWoiNUAhEHIivfhDTqiDbwgX56xcjxv4UUmlHhHnDJQZoY9CJW0+pxwlj6jLmYgCU0JO6kP1+Ft7Dkz26sgDF6fxMj1PTWyr3281pkxKG/4UQa8ciQSOtuiJTOw2s48PwwtxgvDgPAy1HjTrvO+a2Mez8Stz5CvVaJ+hbPn2OTqAL7QQw2tfR+bDksoO4aXMTjOgddseSmJORHOYbwwArQFRi3yMkk9Ezd15pnwNVrMshNZ5OvzxJjQ/2gjDGIgbkJzVlZY8mROiOuIsGhTnA1tjvFBvNnDRlm5iFr5EhC+9YdvHmJVgDfR6H/0PWvTGqDWxY2gsEh8N9fgy681S4tVY6mHjsUkGqEoHZHGpOJ0djwYY128HWnwbSN8uYN9pZJabxqPh8RbS3h1fhJS0qEI8RgKTFZBkK55GBVBbLkIvxjX400wKrZEU2GN+aaYyJibcRmeBsvPuDqYkKOsvFdsa7uanr31o+UDOi9vRiWer+NIjRJskum5ly0/Zu5ZXkOQlJUQk69TYlmGEM0ern7eX40ReXAfe84jFv1k66x0+C5qVIK60OERC21DCEtHIzwl3KXzkyedN+mxpy0POiTLM0RNCIN68zzw+rQdEQJv4Y3W9re6qZdD8PYmlg6teCkiyDuWhDMvsjSZeaYN+Yx2Zvabe6kn9bWJMS0z+Q6+/J9WZsbEhPnBejGbliY8/YLlxzwA7W75aNv0OvpUe+uK87zr3OuY02wogRPg+dkbYmpU6F/Ug5CayUjah9dD6SfkzfPjMww/afOFELwBSLvTBhgvruPZs7pAH6NfkYb1KS0L95nD0HbmOpZ5mYOgn9Pf6fekz+/2Jp/2STOu2uf4ST/gWQy97hYb71N+q2cNUOviNtTiskxAgwSf8X/7DLEfd5o9bCwe7yszW0ln4oHGfvlh5HreKoukYYYihm3S5zMVIQ8n+Gwb6CR6jmvsuph7IzOyl5k1JTzG+/IZaf5alsg20or0onW0MkbTtTT1c8oclIV7+L0iP+6jDEH7RNOvSC+mbMNvvkPSmrWwdejKs+Zg+Z6gaVEuvT9IK8i/Ig8+05/b/K7tzO9WXvKm/YL68VlMGvZZPKzM0XYJ6kE7kxf3KlaumHvsHGVmvZdzsfVXj1hRxuDz4D7qGlOWyuWtuDf6OWlE2v/XtrdnoZ8FZaooZ6Wy8DtpWTpRLJ9KWN3pr9HfLT3KGKRPmTV9KxPlIy3KFS1bcF1NsWfErY0U7B4KPsPq8ZmFNlFviYc376BWkvU/e+eZd3KDe6LXVqQZ/b3i89j0+Uwtqn0e/awyFddA7L36O56QyIExIJMrTGLFpmX3xqZduTyahpUn+NzK8us1FWXlvJVh2/Jve18kHzZc8DW6Fa9EBtfa9ZXqHJNWxeexeUTTD3635xGkGf3/dr9bGtQrku52VL4vSuRZB/fG1DH2HPfEnvuNeyC4r+L32Hwr7o18FqQd+/9t7gnSD+6L/Sy4LiYtOx89F4udi7kvkl6l/KLpb5MP18X085piz4i7KmgFsWiIuu9JZ1VY172Cdl7yR+AIyqxv9AHtTegQ9mZWdDLNcX6LfUfcgAWLYzn3FoGF3RfK4jjVZd8St+M4NYaL23FCiovbcUKKi9txQoqL23FCiovbcUKKi9txQoqL23FCiovbcUKKi9txQoqL23FCiovbcUKKi9txQoqL23FCiovbcUKKi9txQoqL23FCiovbcUKKi9txQoqL23FCiovbcUKKi9txQoqL23FCiovbcUKKi9txQoqL23FCiovbcUKKi9txQoqL23FCiovbcUKKi9txQoqL23FCiovbcUKKi9txQoqL23FCiovbcUKKi9txQoqL23FCiovbcUKKi9txQoqL23FCiovbcUKKi9txQoqL23FCiovbcUKKi9txQoqL23FCSo2Ju8fhx0v3Q46VbgcfJV3/cqR0+dPh0uWPh0mXPxwmnf9wqOM4VeH3h5pmTD8KWur2t6NVqMdJzyNPjKu9HbFb4u5xxAma8TFWiN7HnSEDLrxKht1wm4y592FJfvxZmfjsyzL55foype7rjuNUhXqvy+SXXpXkJ56TCU8+L2PueUiGXHOj9D31PBN5t4OPlu5VFPouiRtR46l7HXOqJJ53mQz9580y6fm6kvZVM1nWrafkj58g6+bNlw0rMmXT6gIpX79etqxb5zjOTigvLpayVatl3YKFsn7RYskbN14Wtusgqa+/LaPuvE8GXnKN9D3lXOl51MmmwXj6DNhlz93r2NNk2PW3ysI27aQsb5XI1q2i/4iUlytbRLbEsHmz/nQcZ6eYVmK0g5bQFOoqK5OsAYMlpV5DGXjx1eZk42kzoFriJrEufzxcRt76b1naqatsyMyWzWvXRgpkolZiC8bnjuNUn1gdQdRpblHPjubykibIlFffkL4nnSndDz02rtCrJO4eR5xoIUC/U8+VGe99bKHCpsIisyZ2uJAdZ89gEbLqvLRU1s1fKMt79JbxDz8lvTWSZjKbcL3K4u6hA3csw4ALr5C0L7+R4qXLLHE74mXuOE7tExU5/88flywTnn5RvfjZEYFXWdzqsRPPv0xmffy5bN2wIZIgIULlzBzH2fNEx+OrJ0+RSapdPHiPwyMh+m+LW71231POkblNmkt5SYmH346zr6JHwdTpMvmFehWz6L8pbgbpC39oJ5tWr3Zv7Tj7MoEHT0mVMfc+JL2OPkW6H3LM9uLu+ofD7CSL6GvT59lN7rUdZx9Hj3IdOucMHSEJZ18UEfcZF/wq7jHPvSxdfn+o9D/zAskdOToSjnPES8xxnH0LPbasXy8z3vtI+umQuvdJZ6m434+Ie/TTL0qPQ4+VpAcfd2E7zv4GEfamTVKyPENG3X6viXvCW1HPPfKxZ2TA+ZdL1sCh5uJtyj1eIo7j7JsgcD1mfviZDL76Bklu2Cgalj/zooy77xHZquqPe6PjOPs2UXFn9Okv4x55SsbXbxgRd8oHn8jsT76wkz6J5jj7KeVbZGPuSpnx0Wcy5oU6EXGn/9JRshIHRcJxF7fj7L/osaRzd5n49vuSm58vB2WMHC0lbDHlbZR4NziOs3+gR+7YJElTh52Tt1IOyktLtw/jXuw4zv6DHoWz02TpsJGSnZsrBxUuz7AP417sOM7+gw6tS3JyZWX6PMnOyZGDinmV07eaOs7+j+q4rKhIClZkSlZ2thy0objYJ9IcJwyojjeXlMia/FVRca9f7+J2nJBQXlYm69eulaysLBe344QJE/eaNS5uxwkbLm7HCSkubscJKS5uxwkpLm7HCSkubscJKS5uxwkpLm7HCSkubscJKS5uxwkpLm7HCSkubscJKS5uxwkpLm7HCSkubscJKS5uxwkpLm7HCSkubscJKS5uxwkpLm7HCSkubscJKS5uxwkpLm7HCSkubscJKS5uxwkpe07cpOs4zvbE00sNUDvi5i+FytbInwOOHuWbNsnmjWWO48SALrY7augv7dacuLcoWxG1SElxqSzNWi0T5iyXxEnzpcfYNGkzaKq0Hpgq3zuOY6AHdNFj7BwZMmWhJKteFmTkS0lJqenIHORuONuaEXd55B5EvTynQBImzpcPO4+T2z7qISc821r++nAz+dsj38ohj35rPx3H+VUPf3momZxd50e59cMe0vCnkZKgDnFp9mpZs7ZYtpSpZ4/qq7rUjLjVY68qXCddx8yR69/rKic+970c+8x3crwK23GcqnOc6uYE1c+lr7eXb/pMlCVZqyIePJ7udsLuiZtrt26VXuPS5cGv+sm5ddvJic+rsJ/+zsR93DPxK+A4zvagF3SDfvj99JfayrMtB8mYGUsi4/BqOt5dEzfjaw0VitdvkG/7TZabP+iu1qa1HPF4C/fYjlMD4MGPeKKFnPbSD3LvF33kBx2blxOiM68VT5Nx2DVxa5hQULhefhwyXc6t95Mc+URLOebpVnEL6TjOrsF81VFPtZK/P9lSrmjYQXqOTZO1a0uqLPDqi1s9NoP8QZMXyKkv/uDht+PUMhaqKxfU/1mGTlkoWzaWVWmSrfri1iNl3gp5qvkA89bHxSmM4zg1CzpDb+guZe4K02FcfcZQPXHruaI1xfJZ9/GakXtsx9mTMA5Hd5+q/tDhzhxx9cStR7/kuXLLh93l0Meaxy2A4zi1B7pDf31VhztbIquWuBlr12873NexHWcvge7QX/0fh9eQ59bPmIZPX7bSdp2xqyZexk7NwjgrmEypDOeCdVHCte3ujV4X+/94cI50KtZYK5+rlG7Ar3nv+Ny2aW1/nbNrHKz6u+vTXpK5sjCyN30HIq+auMu3SFnpRvlp2HS56s2OtvQVL1PHcWof1r//+XZn6ZWUJpt+Y+a8auLeWi6lJaUWkp9dp50c/ZSvadc2rG2ylff9LuPk7U5j5J3OY+Vd5f2uSdLgp5Fy/btdbfNQPQ3PHmmaWOEZmXC5vGEHeablIKmrz+ssfV519ZoPuyXJO53GSqOOY+StDpqe/v8DTevlNkPlVo3Gbv+kp9RvN8LyeE/zfKP9aLn3y75y4Wu/RHYdqveNLdtdn/WK3Ptxz2gUEZnsOaduO/lP476ax2jLg/LW+3GE3Kbpc461W64N0nKqD2vfF7z6k3yg7Vu6oXSH695VE7eU20sh9+tDO/mFNhXb45zag6HPy22GSXbBOpmxdKVMmJcl49MzZfKCbElMWSQPfd3fxJiUvkJGzFwmD32TYEYXq464+k1aIBP1nive6Ci9J8yXlIU5MnF+lsxclicLswtk0vxsS6vL2DQzAgh62uJcmZu52s5NmJsp0xblSuKURSby2GiNfL4bNE0y8tdKj/FzK/Y7cM3VjTrJt4lTZIHmMXNpnpXb8lK6jEuXy7U8R6lxiK2rUz0woqeoDh/6up/qcoPpczvNKlUU91Yp1kSufaeLL4HtIf78YFPzrBwpKsJWA6dJ4z6T5duEVPmw63i58f1u6o3Hq/j1memRMHmheUbE/WTzgTJ7eb4UrNsgF9b/Wd7rPE6a9EuRriquzNXr7PoOo+bI131T5E310I80TZCWA6dKeflWE2TzxFRpOWCqjJ61XLboZ22GTLcNFEHEdtdnvU2sHHlFxXLdu11skuewx5rLDVqu3hPm2bkh05ZYvj8Nn6nprpTNW8rlNY06znzlR+1HHv3tKkEUdcuHPWwL+I5mzass7vWayHn1frL945Uzc2qevzzUVEPyJBPcV30nySkvtrFXZw9XASEijCwh9uLcQhNS/poSeVXDX94oerhJgnnhLBUyHYEo4Pf3fSO3aPg9Xj09x5VvdpTf3fe1HKxpnqVia5YwRcq3bpXGvSfJoY82t9cRuSZ/bYl5eNI8PPruQPuRs2WOGo/VajzI920tB68sHqL5MJTort6cg+jirw81M6Pw/HdD7LPuSXPNABypRihevZ2dwzPgOd+uQyKcbo2I+4JXf1bP4CHVniAi7nEmiHYjZpmVvuz1DnKNhr2XNGhv1yDu5XlrZG3JRpmqIfSKVWvtVcH7NCwPxM11R6uXxCDc/XkfC7c5bnivm62ZHvVkKzPaiBsvzU+8MNEZ4sYzMxy476t+Jm7Gy4h9bFqGiZjQncji6rc6WZkj4k63PJ5uMciGcAzlnlNxaxeUjqPnqKfv6pOyu4GLez8HoSBejg1lm6WouNQg1B6YutiuYdJrpYpvlIbPz7YcLBs3bZam/SbbhNmEeZk2Xue6qoq7ZOMmG98Thv84bIaOlbOkVPNurmNovPtJz39vIi/QvtB26Ay5X//fcfRsKdu8RW7/pJeVGeF2S4qIe9j0pTqcmCqddVyflrFKikvLbB6BVxmJPGLr61QdF/d+DkJhtpkDT9lWxdZiQKqJpeHPo+waZqRXqdiZMGO8PWb2cpm7YpX0TJ5n91TXc69X8eH9MQzzswp4VV++HzzdZubxtKyUNOmfYh7+55Gz5N+f97b7OBr3mWTnr2nU2cb23DsnI98m8ZgXWKPRxQc6zLi4wS/m/Xe0fu7snFoR9/mv6pjbx0p7hEhYrmNuVUnThBQTLwKL3SCCZ2fc23fSAguZmUhjBnvZyjXm0fk/aVVV3HhpooCPuo23mW2Or/pMtsk0Nk78850uMn3JSvucnx00xGamnmOyipjlNIYFgefuoF794+7JMnZOhnrtTfJC66E2y8tSWuX6OlWnVsSN1fUHs2cIxM3RevA0uUrHtGe83FbOrdfOZptZfnpbPTviHjBlkfzpgSb2bLqOTdfwmmcmsnRlkaW1jbjVK3MwqcXEWSBulq8wJF+rB+baa97uLFnqxfOKSuTl74fZpNjTLQfZvZn6OeH7VB3XM7u+PK/IhguE3FfoOD2YUHukSYJN2DGZVqT9Z/qSXJvlp5zuuXcdxM28yJ06FKoRcbOedodaZiwGicfL1Kk5EPe7nSITapPmZWt4PE1D4snScmCqfNIjWW79qKeJn9ls1r2Zlea+m1Q8yVHvvOS3xF3Zc6u4Cbe/VQ9O2EykgOA3bSm3pSyWv5roeJ6DiTI6F5spMDQNdJhQrOP1n0fMsln1LuPSKq77u0YbLKEGk2zvqkHi67iCZTWn+tg694usc/evgXXureWyoaRUnmw2wL72xSdDap9gE0tOQbHMWb7KZsNTFTahMFH1yDcJtmYcGY/PtKUr7mN2mok2wuaktBX2Gc+LsJ1JL9bDF+UU2tiYzxDZ2So2ZuYX6Di7Ucexdj07ydiQQvpEBq3UqAxMXWQz53yOsUDcGPpLG3awdW/CcTbENNVx+aKcIrnni76WPobgvsb9LF+uYUecL6nuOjwfdPjktwNsc9nu7VDTmzdu2ChfqMe46DUPzfcEiOLyN9hGOlieUg/Iz2dbDbYQ97GmiTa2JVR/UK0369eBJ0RwFzdgOayf3P9Vf/uMcTodAg999xd95HHtFJGNJGxIiixVsVf5cTXeV6vouT7YIsqM+AOaxz1638NqUNitFmvgCa8RL3kRGWA0CL3J47xXf6rImyEF6TPbzsYa38Sy66C/S3SIzLejosvdE3f5FvvrCAMmL7AQC6sdL1On5uALJxEqHhyvXIH+TjiNmAmpGTczycn1dp/CfVwT+5z4HJEd/lgLS8cmZaLnECAdhs9jDTefB+ngafkJsffGXkckQJmY+COtwAAA/+cz8uf/sfc71YNnzvBrUnqGbFEBx9WsUjVx62e8WsYXpbO/3GfMHWfvgRF9tElCZLxdWasxVE3cAbJVvuo1YZt9xo7j7DnQHftN0CF6jKvTKNUTt8b2aUtz5bmWg2yJI17mjuPUHvzpoWdaDJQ5S3J3ONYOqJ64Qc/zpQ1n1YlMyMQrgOM4NQ9emy9L6TZmTnxtVqL64tZjwYp8eav9KJtY8TVvx6l90BkrDI17JkvWysibgHH1GUP1xQ168H1qt3/SI/LlDZqx7zhynJoHXaEvdHb7xz00HM9R9f32WDtg18St1/CFifMz8uSWjyJ/J8w9uOPUPOgKff3rw+4yf3me6a5KGlV2Tdyg17H2PXNRtrz+0wjbrnjIo80rNj84jrProCP2BTC39dYvo2RRZr5sVrFWWZ/KrosbotcuzlwlPw+bIQ981c/CCNv08ERka6OL3XF2DjpBL2wWYpPKcc9+J080S5SOI2f9+je6q6NNZffEDVyvB3vPR89YIh90Hmt/q5vtjJEZdV5aaGEL747jbA/6YOUJvbADlO3F76uOJqZlWHRsRzzt7YTdF3dAVOQc6UtXSvvhM+W1H4fLnZ/2tK/r4Vs4HcfZHvRx56e97K+IdBo1SzJyCqJK0mNX9ajUnLhj2AqbNimbZVPpRikoWicrcgtkuRbacZxfQRfoA52gF9NNJT3tKrUibkuDv4JQXh75uYVCB4J3HOdX0IsS6AXt8Hs8XVWT2hF3ZSisFdpxnO2ppJcaYs+I23GcPY6L23FCiovbcUKKi9txQoqL23FCiovbcUKKi9txQoqL23FCiovbcUKKi9txQoqL23FCiovbcUKKi9txQoqL23FCiovbcUKKi9txQoqL23FCiovbcUKKi9txQoqL23FCiovbcUKKi9txQoqL23FCiovbcUKKi9txQoqL23FCiovbcUKKi9txQoqL23FCyp4Rt/+VT8f5DSrppYaoHXGTxtZy0X8ilJfb3yGO//eJHedARvXC3+UOtIJu+Fvd8XRVTWpW3FFLtEUTLV6/QQqL1ktO/hpZsDxfpi3IkqnzMxV+Oo6DHtAF+kAn6GW96mbTxrIKLcXVWRWpWXFjdfT+tKUrpUViijzSpL9c9noHOfmFNo7j/AaXvt5eHm2SIM36TZZJ6Rmqo6ie4umsitSMuPVYu7ZYeo9Pl6e+HSA3vNdVLqz/s5z20g9y3DOt5ainWsnRjuPEBX2gE/Rygerm2ne6yJOqI/RUtKbY9BVXdzth98TN2ECPCWnL5f3OY+Wm97tZIQ9/vIX8/cmWcszT39nvxz/rOM5vgU7QC7o54okW9vuN6iS/7DlB5izJNZ1Vdyy+6+LW6zaVlkny7OXyeNNEK+ChjzWXY5/5bruCO45TPdDRIY9+K2fX+VHq/TBMkmYtk7LSjdVyvrsmbrUgZRs2yuT0FXL1W50stMDqxCuk4zi7ztFPR8J2dJaiekN3VfXg1Re3DfS3Suq8TLnijY5y4nPfe+jtOLUIXvyk57+Xf33QTabPz4pOXFfSZRyqL2495i5bKfXbDrdMj/Mw3HFqncCBvttxjCxakW86jKvPGKonbj1XULRemvSdJGe98qOH4o6zByFEP6/eT9J2yLToWngcjcZQPXHLVkmcNF9u+7iH/O2Rb+MWwHGc2uOvDzeTh7/pH1kL38k6ePXErYm9+csoW3Q/1r224+xxiJaJmj/sMs6cbVydRqmauPUz9sFm5RXJvV/0kUMfbR43Y8dxap9DVH8PfNVP1qwtjuxN30F4XjVxl0fWtDuNmmVT8iyyx8v0QOaoJ1va5p3DHmtuP2PnI4hyaLMK9PyRT7S0JUTOn8A1z0Q2MPB55dUHJi35nPOV9xFUbHzQNGPTPkbHZ7HXxYP8uT5emQP4jPSCa8grtnyUjXzjlS0os+3CooyxbRCL5d3K2oH7SId7uadymk5rfRYtbBfoyGmLZTNj7x0sjVVN3BqOl24otZD8XB3Qs+4WL9MDETrfEdoRr3u3q7zw3RB59ccR8lSLQXJWnR9tAgQhnP/qz/Lg1/3loW8S5OEmCfJYs0S5r3Ffuei1X6zjI4Bz6raTf33YQ/79eR/bhhjbqRkG3aMR080fdpez67SrOMfPixu0lzs+7aVp95dHmibIo00T5W699vxXf5KDdXwWpBELZUI8LGWyzbF+u5HyTMvBVgbKQ7pcw3Mmv3u+6Ct12w6Xl78fKjd/0N2EGIj59JfaygNf97PdiWe83NbOHUceyr8/7y23fNRDrlKHQN0e0bpTvge1rA9E24MyP6FluPyNDhX9ivpThxujaVY2dgc6tP0lDX6Rr3tPlI2se+9g7F01cUu5bCgplcf04Zz64g9xLfyBCB2Y9kCwncekyfj0TBkzO0PGz82Uz3tNlKsbdTIBIL6Rs5bJ0OlLJDFloSQofSbOlxYDUq3Tcw2WuHliqnRLSjfRB+I56fk2eq6b9J+8QDqMmi3/+bKveTry55qHVSDtR86W0bOX2zUwYMoiTWuK3Kn5RoT66/NCKOxNwNi0HTpdRs5cZmUem7ZCvtTOQl6BmDBKH3cfr2kulHF6fqxe11fLjUARHcMzXngYPmOplRsxW7m1f5Bv13Fp0mrQVHmlzTD5rOcE6adlg8HqcUbMXCqDpy628g7T+x/RNJmkpT35P3VoOXCqGZMgwnEiYEBp/2dbDJQS1eVuinurlBRvkFvUc5A4D65yhgcagfBu+7inLFlZJCUbN0myirvj6DkyL3O1tplI4z6TzPM91Xyg/Z63pkQmzM2SRO24k+dn22c9xs9Vr9VR7vqst0yclyW5RcVmFAiB8WR4UwRWXLpJSss2S9P+KeZ1KQPXvPHLaFmSWyhbyrfKsOlLZWDqYsnIX2tpz1qWZ14/MMaByC9RQaavWCUbNT3K8bMah4lsjtDjlxGz1Li0l1PVe77RfrSs3VAmi3OLpFfyPBmsaW/YuNnSfbzZAPnTA03kn+90sfs4EDKRXSDwnIL1Mm1Jrgm7iZZ7qJZvyLSlkq/tsHXrVpmrZRg2Y5kkabs98e1A+dODTezFiUGaj57WehXJm1qGwJg5Eeh7DGFu1aiIV6t3NLFWZXHznilvegUd60CHDnyxhkY/j5xlHfvrvpMtRD1BveJlDTtI5qq1krooR577brCFoxw9k+eaJ8LjEcZPXZQrq9ZtME/1LzWcSekrZMWqdRbGIlw69ZVvdjSDMC+zwDp8knrQ61RQlOFwHXu9oUMlhDpF8zolKuS71IMOV8+4WtMmMsAI0SHwgGe+8qOG4SPMULRSz3gmYa+mdcqLbWRhVoEJsqGmiciW5q2RmSpkwmbKw70MKYqKS6WTGjFmbSlrOQXTI7ewWD7rMcGGA4gbIzNz6Up5WocplIvysU47SqOYFdo+tA2eGgN04vPf27ietlu9tsTOry8tM6Piy67bYuLWfna7OpZidbo1Im7GcUyAxMvwQAPhXd2os4ltqXqYJ9U70wmPejISQjb4aaQ00LHszTpuRBwcHUfPtjD2f9z5hXk4RFugAiTMNXFrWoG46eiI8T86Ng88dtryfFmQtVpebD3E8uAaxJ2WsUomqNdHVL/7z9fm+Qn/iSYI24OhFIb50tc7yNBpS2SdeuTXtIysm1JmooRnWw22cv9bowgMDtFAj/Hz5Ho1RIdE60ZaiHjm0jy576t+NlbGCy9XQ1C2aYvWKbItmfyWRY0DbRPUh/sJ4zPy18jj2i5ch6GEc+u1M0/N8WHXJJm8INvyuaRBe/NUPvaOUCvivkDHYEwexcvwQIPOer2Okwkd56jo7teOjgA4hydEvOdqSI1nDMLyiRoCf6qe7cXWQ218XbCu1Mac16iRuOOTXtuIG6ESGTAO3lJebhNTn2t4S8jPuBeh8NYQXjYtI18W5xRKvbYj5NmWg+UHHUsvzC6wciG0E56LhORBJDB98UrJKVwvz383ZJtJNyIPxnKM+Rv8PMrK3HrwNL2nk4mPsR75EpYv0PRf1rE0nhbHzfh5jI77KcsvGs2Q3lIdruC5n9KxYRDxnflKWx1vLzOvzud0Ujor7UkdCf2zVq+zVZlvE6ZYvWgzrsMQBGU9kHFx1zJ0RmZzs1Ukc1esttlfxBac5/VXPDliICzlyNHxNJNuqQtzbNy5vMJ7tZJ7v+yzjbh/f/835rUnzMu0UJm8EMMMFQshK68CUobXVYQIqnB9qU2OTVIDsq5ko4q7UN7qMMbyDzYcEXUhdiIGBPSCRgAHx4S8hN54crwrY3kOJubwzhFxf2dlTVGPylDg5R+GyeVRcXcZmyb1fhxuE4VFWhbmELK13NN1zF01cbew8hAVjJuTYcOWdzqNNXFPW5xroTt1Ccp6IOPirmUY7177bheZrSHxfB2rMq7Gc9PweEnmJ4BxaeC5F2lH7Z40V0bPWq6CXSe/jJplHv7PDzY1zx8r7j+ouPHKJRqSz1Vv3VS9GEJDyIx5CaHJ5zUdP/MZnvjnEbNUTCtl05Zy6T1h3nZljoTl7dXLLpFCTaPejyNMzKQDzI4z1j5Pf7I0xtFmyHQrD4YBcfN20gItDx4Zw4SxQNx9J82Xa97ubNFAnhoxoovSTZvNEOxM3IiW5S/mLTgQ91f6fyKAFXod9WUIxP2UM7ZOByK1Im4fc/9KIJSuSek28cP4NZgEowMyPl6UU2De8yH16hw9kueaAJhUIxxnvH3vl33NA7PEFYib2XM8c7vhM+0+ZtCz1Atmqrct1nE0Y2GuZSad9WfG3CkLs8273fJhDxunZuu1jJ8pK52Bn2wK4Rkyq804+aPuyRZhUBcENlZFRf7vd0mycLtE68USGF74Lw81syW0uz/vY+VmaY9oAuEH4sbYXfjaz7bEx1CCg8hjZ+KmzVi2Y56AI1LfdRZdUF/mDr5Vw4bhIYIInsGBSo2Lm0R4mIGVj5fpgQRe7BQNX/G4hKF4ZdZl3+ww2pa3OPhp34cV9dzMljO+poPi4cpVAH0mzDfvR+eeND+yFMbGFO5BtITkjEVZ9qD9EfP49BUmHpahmPleoJHDVA1dEejfVURf9ZmkIfE6maKCP13H0IG4+cmsNHMFTHYhnvajZpthYqmKgxCYNXDG3qyfswQ3SiMNjNQHXZMsH45P1DAwXqd+HIlTFtomG1YC+MlcBAcrBk+3HFQhbiIZjAiRxjP6OZ0Uw0GZGaqkLMixfQHUmdD83c7jzBCwzIghOVyNUexzOBBhmIUhxyGwRL2b4i63xXI8ULDcEi/TAw1mbxEBM7uEkowv8XSpC3Nl4JRFcl/jfnYNPxE/Ho2JIsa5V7zZUQamLrLxLwYCb86mj+S5mRaqs8bM+PkXFRhjecbvhO/MKH/cbbxNVj3WNFHqqdjJq9+kBVYmooCbPuhm6+0std32UU/rCIHAMcwIirE6ZU7TsTNiY42ddF5uM9R21+GlMSYYJEL9KQtzZGxahnli6vEPjUD++EATExzj++81fMdzBxtRGqkxmL0s38pF/QKPy7kOo+aYgaI/MdlHeVoPni4zluTJR1o3IqCDH/5WhyZNLBxn2W3SvGybxac9D3TnEmxieU6NI5vLdm8TS3T7aaNfRts6pW8/jcCseCAalruYAaeTE9YiDMantBWeGQ/EpFuwyYNNIvd82Uc7c7J5qYi3HmChNAJAEAic7aiWl3Zq8uIcWz3f7TTOtqTi8YkCmIziOq5BMHz+jl5zm6bNPUE5I2lF/s88QbOEFGk7dIY06Zdi5UDUlI9rjtQhGF6e+mBkiExe/H6ojo/bWr2IFBgakA+79BizB5NezLyzrfWF1kNthj5wCKTPBhjOXaOGgc/OqtMusgynBgdvHZndj0RHGBqGLh92HW8GEOcSW5cDEZYkL9Lhz2dqCHd/+ykvjmwsk65qQa9p5C+OVIaOSIMzdgQbw6p15XPO0xmDcW0gLAwDv/M5nZhrEIwJK+ZcIJaKvBSuj9zHd9dF7gk8Y0Bs2rGfB1iZ9RrKa3MF+kwj5dv2OtInnWA+gXy2NRSR+QfSivWo/D8oV2UxBvUMZvGpE+3HkKJyeUlnZ3U50OBZsJFpwOT5kS9t2K0XR/SzLWWbZNbiHPuiBn/l03H2Hgx9ePV6VcFaexV79175jFKuCb31yyhbtnAr6jh7HqIdtgqjwx2F4wHVEjfHqOlLbKwXu/nBcZw9A/sS+LNDKXNX7HCWPKB64tZzzJo3758SeefYvbfj7DHMa7/QRtoNnb5TYUP1xA168OdNXm073CY7mAyJVxDHcWoOJi6ZmOQrxWcvzjEdxtVnDNUXN+eV5LQMW7MNXkqIVyDHcXafYLXhqjc7yIxFke8BiKvNSlRf3KADeXasDZmy0L7uJVhGqVwox3F2j2A/wbXvdDa9lbJppQohOeyauKF8i+2O6ZmUZn8IkE0L7FN2L+44uw+rUSx5nfbiD/JkswGSMHFeRNhV1aey6+IGFs/1mKghesOfRsplDdvbGJwNClgbJgAqb4pwHGd70A16wVMD7wSwUaVR+9GSPGd5xFvvYLPKjtg9cQfokbd6rfw0bLrc+nF3e3sHT86eZvYNM2YAm4BzHGcbgjE1ekHUfFnGMy0HyvCpi6WkmDBcj3i62wk1I26FL0dnFxtj8clzV8jnPZLl/sZ97bVIxuTBVkTHcbaFrbV8P90DjfvZMvOktBUmajaNxdNaVakxcdsWON7h3VpufyQcT74ka5X9RdCpC7JkaOpCGZSyQAY7jmOgB3QxTfXB8vKSrNWyunBd5I/ss/usmmF4ZWpO3LHYWFzHCLGHfl6unh1r5DiOonowvWxzVH9svSNqR9zxIF3HcbYnnl5qgD0nbsdx9igubscJKS5uxwkpLm7HCSkubscJKS5uxwkpLm7HCSkubscJKS5uxwkpLm7HCSkubscJKS5uxwkpLm7HCSkubscJKS5uxwkpLm7HCSkubscJKS5uxwkpLm7HCSkubscJKS5uxwkpLm7HCSkubscJKS5uxwkpLm7HCSOq423EXRIV99ZNmxzH2Y9B4FtU3OsCcRcVFkppSYlsKC52HGc/B2ddVFAgWdnZclBubq7krVzpOE5IQNPZiBuF48IdxwkJquns7Gz5/wGR8smgTtP9zwAAAABJRU5ErkJggg==;" vertex="1" parent="1">
          <mxGeometry x="91.51" y="160" width="189.29" height="410" as="geometry" />
        </mxCell>
        <mxCell id="A-rdRI398t5r06DDgrGV-5" value="Fazer login" style="rounded=0;whiteSpace=wrap;html=1;" vertex="1" parent="1">
          <mxGeometry x="400" y="30" width="120" height="60" as="geometry" />
        </mxCell>
        <mxCell id="A-rdRI398t5r06DDgrGV-9" style="edgeStyle=orthogonalEdgeStyle;rounded=0;orthogonalLoop=1;jettySize=auto;html=1;entryX=1.003;entryY=0.035;entryDx=0;entryDy=0;entryPerimeter=0;dashed=1;" edge="1" parent="1" source="A-rdRI398t5r06DDgrGV-6" target="A-rdRI398t5r06DDgrGV-8">
          <mxGeometry relative="1" as="geometry">
            <Array as="points">
              <mxPoint x="460" y="634" />
            </Array>
          </mxGeometry>
        </mxCell>
        <mxCell id="A-rdRI398t5r06DDgrGV-6" value="" style="rounded=0;whiteSpace=wrap;html=1;" vertex="1" parent="1">
          <mxGeometry x="455" y="160" width="10" height="470" as="geometry" />
        </mxCell>
        <mxCell id="A-rdRI398t5r06DDgrGV-8" value="" style="shape=image;verticalLabelPosition=bottom;labelBackgroundColor=default;verticalAlign=top;aspect=fixed;imageAspect=0;image=data:image/png,iVBORw0KGgoAAAANSUhEUgAAANIAAAHCCAYAAACaOJdtAAAAAXNSR0IArs4c6QAAAARnQU1BAACxjwv8YQUAAAAJcEhZcwAADsQAAA7EAZUrDhsAAD5dSURBVHhe7Z0HYBzVtYb/7atdadUlSy6SezcG4wrYdAdMCaGDgUcCSSihBAIk8IBAIIEktAQCSUggAVNCTejlmWaKjcG927Ilq3dpe33n3N01srFjsK93V/L5YLzaO7MzszP3m3PunbKG2traGHYgFosXGQwG9SoIwn/HmHgVBGEv+JpIHI2MRqOKRsnIxPDfPYcdy5Lvo9HoduXJQRD6MtuJxBWeJXK73ejs7NwmQPLVbDaroadkyTL+XCgUQldXF4LBIEwm006nF4S+yNciEgvQ3t6OhoaGRMlXeDweJUokElHTsSAsXLKMB5YpHA6r16SQjLS3hL7Mdp0NHDWsVis2bNigpBk1atS2NK+1tRV1dXVqmvz8fPTr1w/Nzc2qnKXigcuTqZ3X61WRqbu7G0OHDkVRUZEaJwh9kZ12NrA4LFDyb44wLS0tcLlcKCsrg9/vR1NTkxoqKipQXl6uog/LEwgElIT8N8tWXFyMjRs3wmaziUhCn2WnIjEcVXhgoTiycKrGUaWkpERFH07nOHoVFhaqSMSSsSjJFI7bRlzG4zkq8WcEoa/yNZFYBBaIIwhLwPIkJeFow7BUTqdTpXosGbeNNm/erKRLtpV4+uQrT58UTBD6Il9rI3EkaWxsxMcff6xSN07Rjj/+eNXOefHFF1UKN2PGDIwbN06JNW/ePOTm5mLMmDHbeu9YLk4HOe3z+XxYuXIljjrySLgp5WNzpf9O6K2ocJBo9vTka1c2cASxZ2XBRXJYuOuayjoojWNpWBgWxU9yeDxe1bNXWtZPjVtNsowcNQrFlPpFSaIYRSCezkwpncPhUD2BRknvhN4OBRtKtb4m0/Yi8UQkQFSld/TeQP/Q/0Yj6WSgD8aiKpqo9/QHR66Ojk6YSLjCgnwUFRcjwhKpD/OsjDQZzyOm/haE3kwsyvWa6jLX74QrSb4SiUeYqOJHouhcsgyeteupMEpTcBSJTxKHP8wzAWxWK6VwEbUAs9WCYCAYH5ecRhD6BBw4KApRw8Q5cjhyJ04gLSgwkCtJmbYXicSIBvzYfN9DqJ33rJLKoNKxr0sR1yUGYyLSRChaGZRAgtDXoJoeCcNgNqH/OWeg8spLYbTZgGBoFyLZWKQAqn73AGr/OY/KaCI27+se9SCulCD0Wbh6q+gD9D//bAy+5oq4SJyB7UqkGI2suu9B1M17hkdT00jaNoIQi5JIpEj53DMw+MrLYCBXeoq0c0tYLRYrrpggCOzDf0HCjSBoQEQSBA2ISIKgARFJEDSwb0XqceZXEPoy+0YkEijs9yPQ1o4YX5ckCH2cfSJSsLMLFocDuaNGItjtQVRkEvo4WkXinvagm8QJBjH8BxfgyJefQdkxR8BTXyNp3n9jN+cohMxHn0gkSsTnI4kCGHXZjzD6qsvg7F+Oo154CmMuvxTehvo+KxOf9eab6HnYnRLqzmPaDHy7SnKA2ZwYuwPJmdF2U9OGw4iydDtsR76BkidVA8+fh+R7GnrC75Prydfy7zhe2DP0iEQ7lttEwfZODD3nTEy87SZYXa7ESKDpk0Uw27N4LydK+hBUwcP+ALxba2nYgnC3W1XkncHlIX62Rc1WeOt4oM/UVcO9dStiJMmOghjMBgS9XnTUbICHpvfQwchTWwNffYPa3jy/SCyiLuNy07I9W6vV/Fk4f3MzurdWwUevStYE0WAYweYWmnYLAi3t6r2w95iuueaaWxN/05HRpG5a6vh0EbqXr6ACvtZu91EkzLebU1to1FWXYtoffg+TxaLKA5TmPT9kHNzr1sPer5+qdH0tKoVDIWQP6o9RP/w+Bp4wB4H2dvgbm9UNkD2/a5SmC3s8cPQrQ8WpJ2HC9ddi1OWXoGTGdES6PFTpaxELBGCy0rajz3Hl9zW0wJ6Xi9E/vgTjb7gGIy66EIUHTqTDn5HGNSJC0xtNFviamjDz8b+jYOJERKIRBGjcgJOOx+grroApGkPH2rUwJx4+Y7Ka0X/ObAw7/zxYcl3w1m5VF2TKNZW7QR0cDciZMBb506aoK8HVDX6Jfbx3W4/mEaIjY6ijHSMuuQhT7r4jMQLorqrC/JPPQLClBVnl5dsttM9AFTMWDsExcJCSYty1V6F4ymQqC24XfdUdw1RZy489Gke8OA8zHnkQlaefirKZh2Lkxd/H7Pmv4cBbb4S1sAAhikCxWBTBtnYUTT4Qx7z6Ig6++3YMOnEOyo88HGOvuhzHvPI8Jt/zGzhKy9TV+r5wN4bOpUzg5hvQ/6gjlBSjfvQDjKJ26qyXnoKzYhD8bR3qhjST04Gh58/FuGuuwLALzoHJ7iDJJSrtLXsuEkkRpjZRsL0DI35wIabQjk3SvnINFl57E1oXLYKVjqh99sEn9L34zt8IRZpAW6tK8YIUkVQjKHGEV+kXRWzX6JGY+L83IG/MaHRvqcbaRx7F57+4BTWvvq6mG3vlpRhz9eWwOJzwUUTLHTsKhzz6EPIOGIeOVaux+oGHsOT236D6368hQgcvTqGH/c8520WSsM9PaV8jpWshijR1qsxIR7vpD95L47xqPEdGP6WGTHzaYJ87vqWDPRKJj7VceYIdXRh50f9gGu2oJO0rV2PJnXejcf58mLOyYEykeX0aVRNpU/JNjlyxe1RMPo+mbgg75kjkTxhHbZOtWHrbb7D4xlux9qE/4/0zzsO6x55Q0w44fjZyx41WwWzIOWchb/QoVf7WKadh8c9vwcrf3Ycv6HMbnnhGnaNjyawFuarzQMGL53Xg9elxa38/inzjrr8ans76+O0AnJYQSsKvJhP2gm+/GWknhSn9CFNKMfziC3HwbymdSxzSOjdsxNI77kLd629R5bHAaLWp8v0ZFsnizFYSMbXvzEfdW+8gRpGBDzQcEdY+/Bclj6NfKVxDh8A5aCC1hQ5Q07u31qF63SqYc7IpsoXQtmIJvrzpl/i/U8/FstvvQrDT/V93YjtFM2bSnbehbNpM+Go5GkkI0s23FolzcjPl2WOvuRIH/epmWHJyVHnnqjX49JIrUfvqGzDREc/EdxAKKgJYc3NhLy1R77vXb0LI7VEnrDlaW/LzEWxuRfuKlTBTmcXlgo2ijLWgQE2/hiTj/k+j1YrSGdMoBbwKA797AnKGVKJg4gTV5vmqNfZ11v35b9j83Iuq82PSb36FrLJ+qv0l6OVbi8Q7LRoIwjlwAOyJna2gVMJdtRmBrg4VieSYFyfGW4I3RiJqG/jJTPSn6otQ/8Rfw11u9afRYoKBBiPf4k9wZ0ZyWw4+7RRMve9uHPLwA5j+0L2Y9sd74Cwr/yq12ylGfHDuhfB3daJs1mE44KbrYbCa4/Il1knYe761SCY6MvJRdtHV12HzCy8nSoHc0SMw488PIm/UaPhbWqhuJCrJfgZ3rKjOFR5MFJmNBnVuJ9jSpsbbCgthsttUf4SBnxvIj3gymSm6jCFpIoj4Q4h00PTtHWr6iu9+D6yYkaapfu11LLz6eiz//R8QSIzfnQv2onz4g5344PQL1Psh556FQSfNUX/Tjoy/CnvNtxaJMdvt6uEPr5/6XbR+9kWiFCg7cham3Pc72Cl98FO6wt24+weJgwafw6G0ydNeDy+1bTx84rW5Cf72dnjr69UkJdTwt5NMXQ1VcG+uRnNrDQbMmU3pcg68rS3o2rgJ7uoadbJWTT/tIDX39s1rsOmVF7CYIlL7kiXUvrIj5PMg5HEnl75zaKQzuwQ1b72OjfOeUZ9zlJbGo5x6Tpuggz0SiVMRs9OJ/NLBeGzaJGx9443ECGDA7KNw+Ly/U4QaRQ3hbtpZ+4FMHF4owTJazCiaNgUVJ3wXA089CRWnnITBZ52hTppumPcUOteuR/GkA3HkC0/hwCuvR//jjsH0G25W6RrT8tnnaFuyFH5vC9b99XESMB7FfhqLYOR5F2LISafjkF//FlMe+J1qd63/8+Nwb6lGvA+O4TDHryRIj0jFvYY2VyG+uP4WtKsT7Qk4nIlLWtgzkXgHRCKq4pQXV+CN445D9UuvJEbSUXT6VBz8218hZ+gQBPiSmb4qEx1QVD2kimowmmGkVG38z67C0f95AUc+Nw9HPPckDn/qceRR2ts4/0Ose/RxeOrq4Ro+DJPv+w2Oee1FHPzrX6oTtrVvvo3lt92pLu3JKR+K+nfm49PLrkmkeEbM/MdfcfTLz2LCDdfCnp+Phg8WYOOTz6htmxSJHwnNmQJ3a3MKzqjnEtJKWp1ZJGYrVtx9nzrpyxhtVvWgQ3Fp79nzS4RIJh7DRzsjrKh9/U11BUP+hLH8KbiGDkZOZSWaP/kUgda2vtuLRxXZkp2DrNJiSuva0LluPdybNlOKFk/d2letQsP7C+Cvb6SItA4dtF3DAT8ivgA8lO51bdiAqqefw5I77qLPbYE1J0f15pkofW769FN0rdsIk8ulBPM3NKmotuWlf2Pl7+9H96ZNKs2OuL0YfuH5aFzwCZo//UzNxzGgHLaCAtSRkB1r1qrLtlgwd/VWdULXSPut+ZPPKAIuV/s8/iBQYZeoNv+uLxHa+XPt7uXn2j1Nhcb4o1l3A88g1NUFe79SHHDjdepkIu8opv79D/HJDy9XMvF5k74GRwS+ho2js7pkaId2h4HKo4GQ6n6OhELq+jiTzUIHnTIaa0TI3R3viKD9YaF0WZ0k5X1Br3yOKejxqG5xe3EhyWBDsIum7+iknUjz5C50EoCvZFAdGLRj+Ymg8Y/TvuMn59IyuVOBOyt4BF8OxPeHqenpPTdjTbyPd3G8FOLEb1A1fMvn2n1LeFaW7Gx1sSanDlXUqI1Rw5vhLtecIUPoCOzvkzuLKz730vH344FPDXw1BBDxeKlSU4ymymqmymvNyaYDjwHemlp4q2sQotSNOwD4fJySSM2UNpSS00JtGxdAqZ+vroEi3GZK9Si600GK26jqd3xpcqPVglB3t7qNhdtrnGKyLCGSjq8qNxoT0YazCBKbow+vqxpnojn0wf2SarSIxHAlsDiy4pfA3Hk3trz4sjo6Lr/7XrQtW67OzPfVZJyjAqdYHDnMtA2+Gug9ReGeaRNvp23TZjuVECzM1+pyMmXg6Xlami45sDjbpCN4So5mPB1HRhab20gWpyPeVkrMi4mPs6j143Gqq17Ya7SJxHCF4R3KF0wuv+sefHjBD7H6vj+qI3Py1gohXvG5AqtXVbJ7en5GyDy0isTwkZJv6nNv2Yqtr76pUoy+2DYShJ5oF4lhmTgC8TV5yW5YQejL7BORGJWGSP4t7CfsM5EEYX9CRBIEDYhIgqABEUkQNCAiCYIGRCRB0ICIJAgaEJEEQQMikiBoQEQSBA2ISIKgARFJEDQgIgmCBkQkQdCAiCQIGhCRBEEDIpIgaEBEEgQNiEiCoAERSRA0ICIJggZEJEHQgIgkCBoQkQRBAyKSIGhARBIEDYhIgqABEUkQNCAiCYIGRCRB0ICIJAgaEJEEQQMikiBoQEQSBA2ISIKgARFJEDQgIgmCBkQkQdCAiCQIGhCRBEEDIpIgaEBEEgQNiEiCoAERSRA0ICIJggZEJEHQgIgkCBoQkQRBAyKSIGhARBIEDYhIgqABEUkQNCAiCYIGRCRB0ICIJAgaEJEEQQMikiBoQEQSBA2ISIKgARFJEDQgIgmCBkQkQdCAiCQIGhCRBEEDIpIgaEBEEgQNiEiCoAERSRA0ICIJggZEJEHQgIgkCBoQkQRBAyKSIGhARBIEDYhIgqABEUkQNCAiCYIGRCRB0ICIJAgaEJEEQQMikiBoQEQSBA2ISIKgARFJEDQgIgmCBkQkQdCAiCQIGhCRBEEDIpIgaEBEEgQNiEiCoAERaVfEYok/BGH37DcixUgMHqLhMGLRaKJ0FxgMgMmUeCMIuyc9InGFjkQQDYUQ3aFSc3mEy+lVF0oiWk6woxNhv18tn8t2RowcCrZ3oLtmM0JuD72nAkHYDakXKSFRhCp0yONBNBjYVqm5PNztRtjL5aHdR45vSIyiUKi7GwNPOA6TfnMrbCUlCJMkO0J60fI9yB09HKMvvxT2kmJEfL5dSicISVIuUiQUhsFsxshLLsbhzz2J4ulTqbIGlGBhEmvM1Zdh5pOPoeyYIxAJkGQkE1fj5KDSrp7sLGL0LKP5RoJBkmM0ptzzGww56wx4qqthsJjj43laGlTUogUEu7pwwM03YvoD92D0ZRcj0Nb+1XieXfIzgtCDlIsUi0ZUpSydNgUDZh+D7EGDKMUjkQgWqnjmoRh04vHIGzNKScepHwsWbG9HkCo1V/QIy0U1OhwIIkBpGEe2pHAhjw9+mi5EEY/TsihNGPJ6UULCeurq8fYxJyJMyzE57AhTBAx2dtI8u1XKF3K7aXlebH39HfhaW7HpmRdgcjri60bpJk/rp3JOETl6SqQSkqSljWSgCphsA3G0SB7fuV5GKQopIlGV9gUamxANR5A9eDByx4+jsiB8DY2IeKmtQ6JY8nNhzrLR/MIqghnMJmSVFPHcECU5gi2tasY1r7+J98++EK1LV5A0Hvp8EEaSz5KToySMeLxwDhwAR/FArH3kEbxQOQZtS5bAkpVFUakNAZqPvaAA+WPHwGi3w1NfTSJTxIyvrbCfk6bOhm3/kFRfpUk9EyYWhttRo678CeZ2NeC7yxfixE/n4zxvK7VzbkMw4KH08CKcWb2OUsRnYMnNRWdzNY6b/xpO27QKh/79z/A1N2Hw3LNxnqcVp61bilPXL8X5gXbMePgP8LbUoeSwGThj63qc3VSFUzetwCnLF6H/nNk4YeEnOLe7EUe+9Cw6m7agdMZ0nL55DU7bvBonLvqQpt+M77zzFkXJThXtJDIJ6RHpGzQxgm4PXKNGYsyVP1bvF1zyE7xy6NFwV21GxUlzUDhhPP29Rcnmqd2qIhl3WDcv/lJN37pwMRz9ylB52inw1NRgwWVXYP6Z5yHU7caoH12EgnET0L1pC3yNzTDZsyhla8eK+/+I+jffQdsXi9Q8mj9eCLs9D+Ouv4aiVX9seupZfHTxpWhbuhzlRx2BQ/72J/jaGr/R9xH6NukRqQexWLxtoxr08QL+V1VOrp+hzi711lFaptpKn193Iz754U/QtW49zDY7TURfgQYDvxLckcGYsuyqTbXk1tvpMzehY8Vyajd5qX3TrsbnVFTQZwyUplnRuX49PvvJT7H4ZzRd/SaYs51qGl4n19ChKDhwPDpWrsaK396PxX/9E5bd9Vs1etj559A6GhELhtR7Yf8lLSIZlCKJwzi9RHx+aiuFEA67EYvERbJR26V74yYs/+29aP50IcZdeyXmfPQODrzjFvQ7ehYsDqdqF/Hno+EQtY8oFaTPRQPxSh2jNhaovVQ0eRLGXH05Zj76N0y69RYSx6bGkyPxV6MRofYu+OqbKDLZYeZNkkg3OWWzFxXCXlhIEauNRI8hmxbo3lyjxvN5MLOV1oPaWNsOAMJ+SRpE4q7kqDrZyRRNmwxrQT5Fng7kDx+D3BHD1HjuKDBTVPHWbMW6vzyGt085FR+ddxEc/fvjgJt+gYGnnKRk4Y4C7gTgz9hggWv4EDXfaCiIokmTMPHWm0g6Bxb87GdY8KNLVWoYn4ArP72SANxBYSaJjFYzFbFEScsM8De3Kon4nJKRoh21iJA7NL6MGIkUCnaqcmH/JuUiGS1mSrF8aFzwMbVvAhjxP+dh0u/uxPhf/AyHPvoI8kaPhHtDFWrfmY/ckSMw5Z67MJaiUdag/tSwdyNIbRyOJiHuim5uQtjrQ7+Zh5Bc12PGnx5EIUUgBU1kLciDxZUTbz+ZTCg9dBryx45Vo2OUCnLg4SEeIQl1/pdUSoQro82CzjVr0fDBR8gbNQKjLrkIE+ZeQK8Xq/FrHv4rfdIEg1xOtN+TcpG40pksVtT8+zV8duW16pzP8PPOwcSbf4GSw6ahdclSLLzm5+hctwHdW6pR/eJ/lFxHPPoojn3jP3D2K8WKe/+AmlffRMuiz1H9wr9hstkw+rIfwTVmFOrefEctx15chKZPFqKW3hdNnYxjnnsGYy69hKJLhxpvonaQmSKVLccFa1GBkoYlYq2shflqmiyaRzDqxuo/PozWxV9i+IXnY9Y/H0PxjGnY8vIr1P66g6JhqZJWDcJ+i6G2tjae3HOOb7MiRm2NqnsfRN28p6mQGvGmfeMan/PhdlFWv35wDCyDNb8A/to6+BoaEKRUymB3IEZtHw4WWf3K4ikftWe81dXopvSM2y9GHrIcyKkYAFCkc2+uplAVgXNIJQJNTfDWNai0kTsMTDlOuKnNxSd9s8pLVDuHLx3KqaxQJ3b9jQ2UJsavgnCW94MlLy+e1jU1K0csrlxk03LMVB7p9qBjxQqE6DvYsrMT+gl9mZg672lA+dwzMPjKy2AgV0D1JnkATZtIDJ+UVeeLaGApohytrFZK/ywwkjTJabiLOxamL0LtINA4c2IaJqzONwXV9zFZ42U8P54PRyo+acrS8vfjMoavADdnZam/1TiC33PHAxP2+dQ0RqsdZo5U9FlejjpZzNuJpjPZ7NuWJ/R9didSylO7nhhJHK7AttxcFQG4p85MlT8pEcPTWJxOWHMpBaNprPR3UiKGpbK5smHNyVbi8GCl+fCrGk+vNpdLLYOXxQOP5w4CHnjePCQlYpLTKIkY2lg8HyvNx0rzUfMXiYQepFUkQegriEiCoAERSRA0ICIJggZEJEHQgIgkCBoQkQRBAyKSIGggrVc27IrkHafqOQxyi8J+jiH+v5HqIg+JKwlSTUZfIrQjLBDfmsAPGkE0pp70Y7TZElcdiEz7K5FwRF2eZQjzJWJmmK0WdfFzKsl4kVgePsrw9XF8g5/JkQXXsGFwjRimrvp2DOhPZY74+qXnYCSkDdrhlJEEWlvQvWkzOtesU3cF+Gpr1VhL4oJhrhv7OlJltEgqAtEr30LOt2uXHDYdlWeejtLpU+EaNUK8EbYj2N2N1i+Xoeblf6PmP6/DTXLZiovU9ZjMvpQpoy9aZYlC7R3qAtOxV16OGX95CCMuPA+5IpGwE/hi4bKZh2DSHbfisMf+gsLJByPU1q7uhk436ROJTA52dKg7WA+67WYccMsNyB44IDFSEHYNP/WpZMZUzHzyb6g863QE2jrV8zPSSXpEIolCXd3q4YwTf/lzDKMoxJ0KgvBtcA2pVM84HPS9k9QNmMne3nSQFpHUzXx0BBk692wMPecc9RwHQdgTHGX9MOGGa5A7doz6FZFkmyXVpFwkfh530O1G7uiRGE6RaNsz5ARhDykYPw7Dzj9btbn510PSQepF8vthybJjxIXnqwflC8Lewo9TG3LOmeoR1CF/MC0pXspFCkeicFZWoHDygYkSQdh77AWFKJ46RT0egB9qk2pSKhI/kdRAQx7lszlDBidKBWHv4Z/pKZw4HianUz24JtWkNiJxyKXBXlKiHmQiCDrJKitDVmm/bfUslaRcJAM/9acwXx7zK2jHwk+Lyk/PATrlbSSD0bDd47YEQRdGkwEwU93q8ZtbqSINNZp/qzX1vSpC34fyncRfqUdCg9BnSOf1mSKS0MfYT65sEIR9RbzBoH6bJ+WkXiQ+YKQzBgt9Fu7IgiE9v1WVcpGi4Rii8purwj4gGghS3Qqk5UCdWpGMRsRCQfibWtRvEgmCTvytrfDVN9Jfqe8VTqlIfCsw37revalK/TasIOjEvXmL+pE6PmCn+naK1ItEi+xcux6d6zckSgVh7+F7kVo++xxhn3e7389KFSlvIxmtFgRaWtD88aeIBPyJUkHYO7qrq9G88HMgEtv2MJRUknqRzGZ1ZUPNy6+g+bPFiVJB2HOiwTCqX34VXevWw+yI/6Rpqkm5SAz/1GTH6nXq18JDHm+iVBD2jJZFi7Dq7vtUJErXYwvSIhK3lbJKirD+X09g4TXXIZIBj1MSeidtS5fjzdknIRINq9/4TRdpEYnhxxC7+g3G6kcexCc/vgqBbndijCB8M5opEr0+c7b6xXt7YWH8OfFpIm0iMdy7kk0yrf3bI3jvtHPQtOBjhP3SASHsGpala8MmrHv0cfxnyqGIhIOwFxfRiPTeUZD+Z3/zQMt211Yju6QMlWedhvJjj1ZPW7XkZMNos8dPCaR3OwnpgvY9R5yQxwN/cwuaPvwYm59/CXUfvg9HfhHM1N7murtfP/s7CYvEvy4Q6uxCyOuFc8AAOCv6I7uiArbi4oRIYtJ+icGIiMcL99YaeLfWobtqMyJeH2yFBarO8EP297VETK/6WRdeqVgkijDJFA2H1IYymC20+vGH7Qv7H/FjaAzRUFj9bcqyq2fFp/rA2rtE2oFtPzQm7N9QZU3+0Fi6MpNeLZIgZAoZ/bMugtBXEJEEQQMikiBoQEQSBA2ISIKgARFJEDQgIgmCBkQkQdCAiCQIGhCRBEEDIpIgaEBEEgQNiEiCoAERSRA0ICIJggZEJEHQgIgkCBoQkQRBAyKSIGhARBIEDYhIgqABEUkQNCAiCYIGRCRB0ICIJAgaEJEEQQMikiBoQEQSBA2ISIKgARFJEDQgIgmCBkQkQdCAiCQIGhCRBEEDIpIgaEBEEgQNiEiCoAERSRA0ICIJggZEJEHQgIgkCBoQkQRBAyKSIGhARBIEDYhIgqABEUkQNCAiCYIGRCRB0ICIJAgaSLtIkWAQYZ8PIbcH0XAYMCRG7C2xmJpf2O+Pz5feC8K+Im0iRUMh+FtbEYtEYcp2wFZYgJDXD39zq5ZKH4tGlZQmmw0GgyH+XmQS9hFpESmaiELFUydjwi+uxdT7f4fpf7of46+7GjlDBsPX1haPIkSMKj9X//iwvQjbyrebhgaShiNd8fSpOOjO21A66zBEqSyamG5nbPusyCbsASkXKRaJIELRqN/hMzH53rsw9qdXoP/s2Sg/5kgccOPPMP3B+1A4aSIiAf82KUKdnRSpWhD2+Limq/IozSfY1Y1gZxdFtzBCHq+KZmGvNz6eRMwfPw7Dzj8bhVMORjgQQKCFxtNnOFJtE4ZeeX0CJG+gtY2WG+TC+DhB+IakXCRO6cx2O4aceyYKJx6ANX/6K14ePxnPlA1Fw3sfovTwQzHu6ithsJgRbO+At34r7OXlKJ42GTGKMp21m1TFZ7KpPGdwhUoRDYYoiqZPoWgXgq++QaVzPDDBtnb4O5qQN2Y0jE4HOmvWK4E4Qvmam+FvbEDeiOHIGzsavpYGuOsb1ecE4ZuS+ohEB3ujwwlbSYl63/jJx2jasAxNDZsw/3vn4p0TT8fSX9+NcKcHRpJp1rwnceqaL3Hce2/iXHcTDrz9V/A0boa9sAiH/fMvmPHowzjyxadxdksdjp//OuZ2NyL/gPEkTrP6dhxbiicdhDPXrMFJX36Ms+o24sD/vR3uuhoV6QaccBzOaKjCiV9+ghMXfYjvxwIY9J1j0LV1M2IJEQVhd6RcJKPJiHB3J1oXL6a0LYJZ//gbTl/8Babe8L/IGTYQNa+8htbPP4e1pBiHP/MEhpx9Gure/j98dslV6Fi3HpNu+jnGXnUdfK3NCHrcKD74QJTOmI76/5sPT208khzxzD9htuYg1N2tOgEHfncOQiE/SfupGj/ptptQMPFAWJ3ZGH/tVbDl5WPlPX/AinvuR4Tabke98jycheUIdnRQGigyCbsn5SIZLFZqv0Sx8q578Pl1N6NjxWoUTBiPKb++DScsXIBZTz+G3BGj4RpaCdfYkehevwlLb78Tq//6Nyz9xa1qHoNPPhFWlwvRQDzFW/TT6zHv6CPx3tnnqvf2slIYrVZqj8XbOlX/egHPjD8AL5NwrV8sVWWcynG7aukdd+HdE07Dl7fcjuqXXoGviSIZYXJlw5Do8BCE3ZFakTivi0VhzrLDSO2kjU8+hXe+exrePflMfHLFT6m90oohZ56O4T+8UKVuBoMR1qJ8TP3jfThl5WKMu/kGeBspElGkMVosKlj4Wtvg7+pCAcwItVIEIcKBYLzXzxiPJtyRkG3PRVZOCXwN8agVi4RVh0X2wEEYe93VJPEHOOTPD8JR1k+Nj4aCZH3KjzNCLyXlInEPm724GAfcdAOm3v9bkioL1a+9jC/+cC82Pf6kmix3+FBEggFEfQGE3R5s/MeT+OLnt2D1A3/Chkcfp8jxb8RIFCUTtYKMJhN9yghLlkN9nvXpmZAZzRYKMWaa3gQjScyEvX4UTZ2MaX+6DzmVFVj90MNYeuddJGqTGr/9HAThv5NakTiEUETiczy5lFoNPuNUTLnntxjzkysw/tyL0H/OsWoyd3UNOlauQnfVJkrT+sGSnY3OdRtgycnBoO+dBFtRkUoPySAaDBQ4uNJTtEvUfQOJFaO/aUz8vZlFo/HqI+Z4GY2yFxaovzup7dWy6HNY8nIpZcxRZWqeHEEF4RuQcpEMZjP81A5Zff9DaPzgI5QfcwSmP3APZj7xF+SNHoVNzzyHqiefhq++CasffASdK1Zg4q2/wHfeewNT770LIUrj2pctY0uUWNZsl4o4MS6wUuQhjGo5JhXt1HuSh9NEg9Go2k6MiSJT+/Ll6Fi9FgPnfAfHvvYKRv7wIjUNwyJJr53wTTHU1tbGD7t89LVRA53aF1X3Poi6eU9TIVU+k17X1MLCEXWC1DmwP4omTYQ5x0U12wB/SweaFyxQ530MVps6b5RDaV7RgTyNk4JZTPXguau3wJqTq84tWXJz0bLwc3i2boWtoAADT54Df0MTtr7xNnJHDkPJlMloX7mS5FupROarKXKGDkXtG2/RZ2pVV3nRwQep2NW2ai0sDhuNH4ZN856iCBaDKSGesH/DFxLw0bt87hkYfOVlMJAr4JP3iYNtykVKwlcssEwIhdTlOwqKHGaKKgZq+6gVjERVo59752KUEnKUMFqsMPKXICJ+v6rsRrsNJvoMn6iNeH0cgmB22BHj9yQjj+Nr7vgEbISWGSOROSIZKfrwez5JrKCU0MDtuEiMop1jWxooCLsTKbWpXQ84heIrHMycnlFUUUO2U1V4ruCcnhkpPTPRNJZcmobaLxaXiwTJogpuUoPZ4YCZPmOkdJHhVwu1cSzZLAFNQ/Pi9I97CGmm8c9QumfJyVbTclvKxO9pvmpwOml+2bQu9BmRSPgWpE0kJnkZT89hR/7b+B3Ld/ee2bGs5/uegyB8G9IqkiD0FUQkQdCAiCQIGhCRBEEDIpIgaEBEEgQNiEiCoAERSRA0kLZLhHYKX57DT/sJBtXlPWEaDJGIuj4vfhmRnCjdv4jByPeEUR00mc0wmq0w2Cz0SvXSwFf0p46MvdZuR/gmO75OLmYywFlSDEdFBQrGj0dWRX/Y8/JgstpobWkd42sr7A9QJeXrJ3119ehYuRrty1fB29CIiLtb3UXAl4/xNKk4vGa+SLQiIa8XEZ8f+RPGYcCc2aj83snIHjoEZhvJIwgEV1J+DEDzhx+j5rU3Uf/2u/C3tcGamwejuh9t35KxF60qaCWCHZ3q6ush55yJmf/4KybedIN6bJZIJPSEq6uDMpWKU0/G1D/8HtMfeQDOwYMRaGlBJJH+p5O0ihTs7ITJ6cRBv7wRU+6/G67hQxNjBGHXWBxZGHDcbBz6t4fVw0SDLW2JiJE+0iMSRaIwt4foy0/4+bUYc9VPaOPEn7cgCN+UkskHYdpD96sbPP0tep4Zv6ekRSRO5fimvMozT8XQc89MlArCt6dw4gQc9OtfImdwpXoyb7LNkmpSLhI/czviD6hbvEf/5MfqVygEYW8onnowhl5wDmC2qjue00HKReJzRNFYBANPOA4F48clSgVhz+GH3ww84Xg4B5Uj4vGkJSqlXKRINEpheAhKDp0Bg9zOLWjCNXI4Kk/7Hgz2LHWwTjUpFYmvTjDQkDdmJHJHDEuUCsLew6dLCiaOgzXbgWg49T14qY1I1D7iNpK9pBjWvLxEoSDowVpcSG3uQvW0qFSTYpE4nzXDRl/YZJcTroJe7HmFsBYVqUeq8RN9U0mK20gxdcmR2RJ/Lp0g6ISfrmvg5yKq6yBS2+GQ8s4GRn6nVdgncL1SdwmknrSIJAj7jv3khKwg9EVEJKHPkM4GQ1pESk/wFfo6fEFDun5kMeWLjUUN6uoGQdAN/2pJxBcgm1Ifm1IrEh0yoiE/Ao3N6ndeBUEnQXcnQh3taUnxUipS8pcevPUNCPD9I4KgEe/WOvibW+O/upjiC1dTK5KRRTKhc/UadKxenSgVhL0n5HajZeFihLq61dUzqSbFbSQSyWKmI0ctGt//CGGfL1EuCHtHx4pVaJj/PtQvO/Z9kaB+hjIaiaL29TfRvnRFolQQ9hz+edTqV19H56o1sNjtaekVTrlIjCXLrr70+r//E2GPRCVh72j5/Etsenye+u1h9fvDaSAtIqmH+2VnY+PjT2Aj/3q4IOwh/Ev3n/zocni21qnfIU4XaRGJ4R9i5l8Wf/+HP8CXt96ZKBWEb07HxvV4duBQtC5fDeeA8vhFq2kibSLxl+ZfNHcVD8LiX96K/0yehWBXFx1h5GSt8N8J+/yoffttPD9sPALN7cghidJdb9L+yGJeOD/3219fD1t+IUZffTnKjz0SrhHDKGplxbvM+byAakKm74gjpIP4PmdJ+BFu3sQzwKue/heqnn0RVpeL0rlsld7t61+i7xUP0ef7k1iWQGc3Ql1tcA0djoKDDoBz4AB1S7rZ4aD1MMXXUdh/oErKFTjY0Q5vbR06N2xE+6IvEA6GYCsqhMlqTVkPXa8QKYlaEVoPPqkW8rhp2fyLAzYYuTcmxWeqhQyBKkXY70PE54PRZlNRyESvHKVSWSd6lUjbSKwcbyz+AuqOWolG+ydUFzgbMXJ6z0Oa2kK9UyRB2BlcR1MYhXqyO5HEEqH3kCaJvgkikiBoQEQSBA2ISIKgARFJEDQgIgmCBkQkQdCAiCQIGhCRBEEDIpIgaEBEEgQNiEiCoAERSRA0ICIJggZEJEHQgIgkCBoQkQRBAyKSIGhARBIEDYhIgqABEUkQNCAiCYIGRCRB0ICIJAgaEJEEQQMikiBoQEQSBA2ISIKgARFJEDQgIgmCBkQkQdCAiCQIGhCRBEEDIpIgaEBEEgQNiEiCoAERSRA0ICIJggZEJEHQgIgkCBoQkQRBAyKSIGhARBIEDYhIgqABEUkQNCAiCYIGRCRB0ICIJAgaEJEEQQMikiBoQEQSBA2ISIKgARFJEDQgIgmCBkQkQdCAiCQIGhCRBEEDIpIgaEBEEgQNiEiCoAERSRA0ICIJggZEJEHQgIgkCBoQkQRBA71epJgMfWLo7fRakbbtgBj9S4MhFpWhFw6872I8JPdnL8VQW1sbX3+ukDYrYoEgqu59EHXznqZCIwymzHItubEN0ShMsQi9kkSqgMbE1F9CLyFG+4x3G+08RI1GRA000Gu8JLOIRSL0rwHlc8/A4Csvg4FcAbkCQ3xNe41IvJI8GKMR2CNBRGjd/BYb2rNc6LJlw2e20Hs7TWGg/+JfSchM+NBnMERhCYXgDAWQ5+tGvq8LtmgIRjo4+k02JRRX0UwRqk+IxKGfj1ZZIT8s4RBq80qwvrAS64oGodWZD48lCwGzCSGjTW35TNn4ws7hCscHO5YmKxiEM+hBqbsNg9vrMLx1Cwa01yNCB0ber0ZOAROVNZ30epFU/kyrlhdwI2gw4bXRM/Fl/1FocRTAa7WpnWKif1TOHf+I0EuIUSXk6BThgx/tZEc4iBISamzDRsxZ+x6yAn50UMbBdTXdMvVqkaK0TkZqC7kCXmwqKMeL447BsrLhaqNb6Ghmoi/Hf9Nq0qskdL0NroLcTqJ0Q0kVMZkQpswjZLJgQt1anLH8DVS21VPq7lCpnjGNMu1OpMxoAO0EloLDep6/G6tKK/HgjHPxRflo2CJhZNGRyxQOq5XnIxX/x19I/S1DrxnoH7Xv+E8j7XETpe32EKV6IR+W9xuBBw6ZS/t+MFxUBzjjyOQDZcaKxBHS5fNibXEl/jzldDRlF1BkcsNMIvXcEWpgkYReylf7Ue1Xo0FlGjnUbmp2FtC+Pw0biyqR5/OoND9TyUiRojQ46Ki0Nb8kIVExbVgvbWQakeweVQIJfYlt+5T3Mf3P+7wppwgPTzsDNfn9VKTiupGJZJxIvKGslLb5LFl4c8ShaM7ORw5FonjQyazV5eNjz2FP2XE+yaEnuyrfE3TOa99B+5r2ebbfg1ZHLuYPnQyfyQoL1Y1MlCmjaibvWO5c4HNF3LW9vHQYtZN4JXlM5kUg3ng9hz1lx/kkh57sqnxP0DmvfQulebTvee9/UTYaa0sqYY5R25jqSKaRUduSN5iJjjceqw3L+g1Hlz0b1mhIpdCZRCQag8cfRJcvgO7thiACITpi0nhvIIwubyCe1ydye/7bHwyracPUDghHomqar8+HyqjcGwiBmgxfm8ZNyw6FI2q+PdsN/GeI5uum9YivS2S78RGqgJ4ArTfNL7kMnhevR6bC+94WDaM9KxerS4aqk7V8YP3qW2UGGSUSd2BzQ7PVka9OuPLGUt3bGRSNIlzpaHVKcrNQmudEca5DDSV5DvTLd8JhsyqR8pw2DOmXi9Yun/ocV2juzs/NsqK8IBtm1daLYUBhTvzzuU4a4vMqoqGsIAeFLjva3H5Uluaq8fHlOFGYnYUACdnh9dOyottk4b/NZF4prwtNZzMb1TIZlt9giKE4h9czG8UuB0ppfYtdWegmodrdvow7YMXhfj0+2xTF2qLBaMwpUBlLpomUYeeRorAGQ1g0cCwen/RdpY+FjkaZsod5LdqpYo/oX4A7zpsJi8kEq8Wszm+YeCS9PvvRajy3YDWuPWUKjpwwGL94/D08//FqVPbLh8ViwnmzxuHoAyrxq2cXoJuiwd+vPAFt3X4VSVgOE4lgs1rgyrLhi011mHvtP1D9xs3YsLUVWVYzzDSPTk8A6+j9Ux+uxvr6NtipjJcdpih16JiB+J+jxqMwJwvzPliFf320BiZauRAdAIqp7GenTMPIAYUI0rR2ml8Xybi0qhn/nL8C6xvalGiZVkn5gBOkXIWFmvvlK5hcvQIhi4W+curqRe86j0QH+5DJjDpXMSJ8Ai7GK58ZcOXibcapW7bdoiQ5bOwg5FPkyXfaUURHeK68dhIrTAelKSP6k3CF+N33j8TAYhcaO72w0HcaM7AI00cPUFGJ51lKkYaj1zAS7YgJlZg8vBxFVJmLKeLlUuRBazcGUtQ6guQbUOKiKOXAUfT3JXMm4U6SOS/bRmleVKVnVhJqzsHDMPugoTiY5nPsxCFwOWh8iKIWRysSf/KIchpXhooil1rvw8dX4sqTJuOlG0+laBtRqWcmwil/2GiiiFSIMH2PeKaSOWSMSJylUyKCIInU5CxQZepahRQedb4JnGjEmxQxlead+/uXcfQtT2HO7c/ipF/9C4+9uwxBapuEQ/EdzZHo9rmz4POH4CcJI4kK4KJKvKq6BYfd8A9855Zncce/PoKXovGHq2pwwX3/xmHX/xM3P/kBLZCiDcFtpFvmfYSJVzyKU3/9PEWRRhxKIleU5NLyqF1G68ICjqsoUtOHSa7vTBqC8YOKEFLpH5dSekkpXkOHBzc+OR/Tr3uM5vUc6lvdGEBinTRlNBppnIm2eWZVU64D1C6il6bsfBKJDrJUVzKpZZdZbSTae1FKbbrtObTZqMpm0pbqScJtbrxzWrRlRQ1WrK7DsvX1aOr0qA6C5DTM2bPG4+LZB6KhzYMIdxIQXFl5ksYOL9o8Xmr0h2hncApGDWtK9RppPixPcg+xtPVt3ejaWI9XP9+ApZsbVfkwEonTNj+JM35wMcZSxHt3WRXe+GKDGl9OgoSpTRE3g094UtSnddhC8jQ2dOKFt5ZiRU2zmvbAIcUIU7qpztdllknULqJ/Ykb4TXZE6eDSY/NmBBklEsMbyIhESpdxa/cVYTqyc/towd1z8f5ffozFD1+Md399HmaNr6DI89UFtDf84/9gpUb/z0+fiiPGDUIHtW+SsEx2ag/ZKCXj9hZ/XRPVYk7RuD1kpbLkNjBTO2dCRTHGTB+By447GIePq1TlVS1udZ2ajcYfTamhhdbprS+r8Je3lyjxbj7zEDioPcGRkN2IRmJw2Mw4sKIUk8YPws9/cBSmj+yv5vXByi2wUzoZ75hQRZkDrw8NAbNFRaaMEz3xmlHEkquVYRurJ7FEtBxeXoRJw8owlirm2MpiSq/samRy1ecvqcalD72JwaUF+NHxk1BW6KTxu/5i8TFc6RNdvIlJc7Ls+PUFR2DZPd/H7y86CoOo3fXE/OVYVdNE8sXQvygHJ08djoZ2N9bWtKnoV9/hpjaUXY3zUdrIWzVE0amQUsDfU9vt07vPx51zD0d2lhX/+WwdXlm4HmV5zv+2emmHzytlmuNMxonE6Z2Je+qYDN6hFjOlYZQiHfO/83DAFX/F1Gv+jtnUVnp36WaYzfHowhTmOvDE+yvw4fJqHHfwEMwaV0Ff0qC6qr8NvKz3aB7zV1ar92tqWvDgq4vhpggXpPbY8PJ8ZNmsyKO21+3nzsQffzSbyuJtzWtOmQY3RScDRS3uYeSOibeWbMbCdfVqfIfHj3Pu/TeKXNkwqu7HzIXvjM5EMkYkFa1pJxvoiOkM+OgNHZEzTvMEJHjS8dZuLxpau1FHkaCx3UvtFYqn9D2S460WI7o9PvyZUq1masjnc08coVJ+9ddXJGLQTuETp3c9/zG+f+8r+GxtLYaW5WMKpWRGani7u3y4+uSparq6Nkr16D9OOxvbvKodd8YhozgUqfaZhXu+aD1++fSHuPiPr2JZVZOS76xDxlBbzUf7ITNF4i3DW9UR8lN7ib4h15X4qIwgo0SK0sYxc+rh7VBl8SC+68qVDnht+KDNu9FCkeeRy47DvOtOwRNXn4R/XH0izjx0NLV34u0cxkztIwNV3k+o8s97f1X8igTCmjw/l/h6RnX+yAwbzVM1UJJfO5FnZdksqsLXNHXixU/XqbKbzzpEnRQGLYO7zflKiHte+gyn3/0Szvn9y7js4bewubFTTXvacQeRZB5k2WkZtG5lBdlYtbkZz328Wo1/5LLvwGSkxnwoE7u/+Q7puDjFnnaYIuFt7zOFzDrm05axUlpX1t1MK0ZHUO4+yiCPeFW40R+MRFDb0oXmTg8OHlaOWWMrMGNUf0ynga9C4I6D2tZ4BQ5RxeSOA48/RJV2jepxa+32weOjNgvJww1nrhK+QJg+061OzvJ2MNB3j9GRF06bms/W5m6alt6TgO8srcKLn6xVbZ3xFSU4+qDBapoFq7fivRXV2EyyNVKEfGvJRny0qkZ1x//g6AnUfvKoNlQDRy2alcNhw1Mk94JV1bQuRlxwxDg00TTc65hBm13B7Wa+6qWsqxlWPr+YSRYRGXVlA6c7tlAA1Xn98Pikk9HgKoEtHKRKlTlbjSOKzWrCyPIiCgQxdU4puXZ8ROcUr76jW51gLc/PweKqBnR6gipCRaki9KeykrxsbGlup1QqoE6S8onQXIcdQ0jCLl8Q1c2d1I6Jt8PqqdKffthoNFMF39LSqS454jZYqcuBYdQuqmqgaWnfjSwrQDXJXU3TxKOlUbV9uO00oMClusjnL6vG9NHlMJOkm5raKV0Mw0uC87knvmyIl7G0upnWxab2RcZsdfp+fpMVRRSNLvj8RQxpr0XAwtfcpY5edas57zwz1aAQVZRnxx+LBRUHwRGmnDiDRGK4sR4IUwrUo7bxRuQ/+eoFTufUSVmKKKprm9M1gq9743Jut3AZd4snZxCk+UXCNBcqstI47gZPzttDcvEmsPIlQjR/7qhgMXhQXeQ0ji9QtVC05M9ydInDF8nS8mg6vmGOLwni6bjcQu/NZjPt9pgq43lxWsmXMSUWmzHwdvOROLOqPsf3lr+rbu4M07qnrmbuXqRUrstu4VXiE7J8U9/4xg3qRq6AyUKFXGMzB67MDqsFDjsN1HbhwZl45YrIFZnbO04ab+5xIOIDAoulpmMBelRZfm+3mdUlRkqEHrWZl8NtJCUXweNZGF4mRx5uk/FlS7bkZ7eRWB5/ntaHl8/X5fEyTGr5XA/i0/DneV6ZJhGfSgiYbMj1uTGhbg3slLHw5WOZtp4ZJ1KMNlLYaMZBtavoCLSY3pvU+4ySiVaUK+CuBjXJDu+TfFWeKEjQc/odRvUYlyggtpu+x7AjO47b8T2zs7KMgCTih6HEKIWetnU5xjVtQoQPTCLS7uENxE+RMVE4n0mhfHBrDYV1S/wJnJx+CvsHtK+jVD05peMnCc3ctEj11nHdyDSJmIwTieGV8lnsKO1uxmnL30L/jib4zDZEeBPSBu55s5rQt1D7VklkgJck4n1/2vI3VU+uz+rIzApLZOp6qRNu/KTN0RTOz13yCso7SSbasEFK85RHIlSfIikQv4QonXdb7RjQ2Yhzv3wFYxo3wmO2qzqRqWSsSLzJuH3koaPQGJLp+4tewPTqpRTaTXRkyiKh+A6VeIRSF74ldoQMvW2I7zs+wRqk9N1D+5Y7mKbULMdFC59X+57rANeFzNWI6msmP2mV4dUyxCJwBPzotjvxyaAJWFY+ChsKByBossJIE/BNXvEHpMS/itBbMMTTdZKIT0zzLeQDOxpxUN0aHF61CNk+N7y2LBpHEqXZol79yOIkyRTOQo1NE21s9UyH4v5YX1SJqvwBaLe7EKajWcaGV2Gn8CVg/ESgAn8nBrfXYFhLjepYKOluVfdEcWTiapoJvYl9QiSGV5IHfowxC8VRyE8bmm9N56cNddhz6Gumf4ML3xDaVcZoGHl+NxxBH6zhELJo4POIIWoHy8+67EPiK8qvnM7FpTLTEc3AZ+65QOh1cAdCjMIPny9ieXgvJiNQpkjE9CmRepJZ1zoIusjU9LxXXSL0beAVl6HvDb2V3rzugpAxiEiCoAERSRA0ICIJggZEJEHQgIgkCBoQkQRBAyKSIGhARBIEDYhIgqABEUkQNCAiCYIGRCRB0ICIJAgaEJEEQQMikiBoQEQSBA2ISIKgARFJEDQgIgmCBkQkQdCAiCQIGhCRBEEDIpIgaEBEEgQNiEiCoAERSRA0ICIJggZEJEHQgIgkCBoQkQRBAyKSIGhARBIEDYhIgqABEUkQNCAiCYIGRCRB0MBORIrxr6AT9I8hxu9kkGG/H+JO7BpDbW2tmg4xerHZEPX7sOk396DmsSfiZUaTGi0I+zXRCNlixIAL52Lo9T+F0W4DAkEqixu2vUgWC6I0su6pf6Hl7XcTIu1GRUHYH4iSCyRN0bFHofys02G0WYBQeCciMSRO1GhEpLMLEa+XphGJBCFJjPwwORwwuVwwxqLbJGK+JlKMRhpMJjUIgrA9sUhEDQbO1nYpEhONglxT0Wj7EYKwf8PacFRSPXSUuX0F8P8HoPWbC5UcbQAAAABJRU5ErkJggg==;" vertex="1" parent="1">
          <mxGeometry x="91.51" y="620" width="191.33" height="410" as="geometry" />
        </mxCell>
        <mxCell id="A-rdRI398t5r06DDgrGV-11" value="" style="endArrow=none;dashed=1;html=1;dashPattern=1 3;strokeWidth=2;rounded=0;entryX=0.5;entryY=1;entryDx=0;entryDy=0;" edge="1" parent="1" target="A-rdRI398t5r06DDgrGV-5">
          <mxGeometry width="50" height="50" relative="1" as="geometry">
            <mxPoint x="460" y="160" as="sourcePoint" />
            <mxPoint x="620" y="160" as="targetPoint" />
          </mxGeometry>
        </mxCell>
        <mxCell id="A-rdRI398t5r06DDgrGV-12" value="" style="endArrow=none;dashed=1;html=1;dashPattern=1 3;strokeWidth=2;rounded=0;exitX=0.5;exitY=0;exitDx=0;exitDy=0;" edge="1" parent="1" source="A-rdRI398t5r06DDgrGV-4" target="A-rdRI398t5r06DDgrGV-1">
          <mxGeometry width="50" height="50" relative="1" as="geometry">
            <mxPoint x="185.65" y="150" as="sourcePoint" />
            <mxPoint x="186" y="130" as="targetPoint" />
          </mxGeometry>
        </mxCell>
        <mxCell id="A-rdRI398t5r06DDgrGV-13" value="" style="rounded=0;whiteSpace=wrap;html=1;" vertex="1" parent="1">
          <mxGeometry x="455" y="680" width="10" height="390" as="geometry" />
        </mxCell>
        <mxCell id="A-rdRI398t5r06DDgrGV-14" value="Redirecionado a pÃ¡gina principal do perfil ou mensagem de senha incorreta" style="whiteSpace=wrap;html=1;aspect=fixed;" vertex="1" parent="1">
          <mxGeometry x="135" y="1069" width="100" height="100" as="geometry" />
        </mxCell>
        <mxCell id="A-rdRI398t5r06DDgrGV-15" style="edgeStyle=orthogonalEdgeStyle;rounded=0;orthogonalLoop=1;jettySize=auto;html=1;dashed=1;" edge="1" parent="1">
          <mxGeometry relative="1" as="geometry">
            <mxPoint x="459.43" y="1070" as="sourcePoint" />
            <mxPoint x="240" y="1074" as="targetPoint" />
            <Array as="points">
              <mxPoint x="459.43" y="1074" />
            </Array>
          </mxGeometry>
        </mxCell>
        <mxCell id="A-rdRI398t5r06DDgrGV-16" value="" style="endArrow=none;dashed=1;html=1;dashPattern=1 3;strokeWidth=2;rounded=0;" edge="1" parent="1">
          <mxGeometry width="50" height="50" relative="1" as="geometry">
            <mxPoint x="186.67" y="1219" as="sourcePoint" />
            <mxPoint x="186.67" y="1169" as="targetPoint" />
          </mxGeometry>
        </mxCell>
        <mxCell id="A-rdRI398t5r06DDgrGV-17" value="" style="shape=image;html=1;verticalAlign=top;verticalLabelPosition=bottom;labelBackgroundColor=#ffffff;imageAspect=0;aspect=fixed;image=https://cdn0.iconfinder.com/data/icons/elasto-online-store/26/00-ELASTOFONT-STORE-READY_close-128.png;rotation=-180;" vertex="1" parent="1">
          <mxGeometry x="165" y="1220" width="40" height="40" as="geometry" />
        </mxCell>
        <mxCell id="A-rdRI398t5r06DDgrGV-18" value="2. inserir usuÃ¡rio e senha" style="edgeStyle=orthogonalEdgeStyle;rounded=0;orthogonalLoop=1;jettySize=auto;html=1;dashed=1;" edge="1" parent="1">
          <mxGeometry x="-0.0638" y="10" relative="1" as="geometry">
            <mxPoint x="280.79999999999995" y="680" as="sourcePoint" />
            <mxPoint x="450" y="680" as="targetPoint" />
            <Array as="points">
              <mxPoint x="330" y="680" />
              <mxPoint x="330" y="680" />
            </Array>
            <mxPoint as="offset" />
          </mxGeometry>
        </mxCell>
      </root>
    </mxGraphModel>
  </diagram>
</mxfile>
